<svg xmlns="http://www.w3.org/2000/svg" width="20" height="20" viewBox="0 0 20 20"><defs><style>.a{fill:#c8102e;}</style></defs><path class="a" d="M342.19,8.412a.508.508,0,0,0,0-1.016,1.185,1.185,0,1,1,.609-2.2h1.342a2.2,2.2,0,1,0-1.951,3.217Z" transform="translate(-327.101 -4.011)"/><path class="a" d="M221.134,8.41a.508.508,0,0,0,0-1.016,1.185,1.185,0,1,1,.61-2.2h1.342a2.2,2.2,0,1,0-1.952,3.217Z" transform="translate(-210.541 -4.009)"/><path class="a" d="M66.072,44.628a.54.54,0,0,0-.087-.434A.458.458,0,0,0,65.615,44H62.7a.714.714,0,0,0-.173.747.629.629,0,0,0,.586.438,1.019,1.019,0,0,1,0,2.032,2.433,2.433,0,0,1-1.931-.982A2.871,2.871,0,0,1,60.65,44H57.959a.714.714,0,0,0-.173.747.629.629,0,0,0,.586.438,1.019,1.019,0,0,1,0,2.032,2.433,2.433,0,0,1-1.931-.982A2.871,2.871,0,0,1,55.912,44H53.221a.714.714,0,0,0-.173.747.629.629,0,0,0,.586.438,1.019,1.019,0,0,1,0,2.032,2.433,2.433,0,0,1-1.931-.982A2.871,2.871,0,0,1,51.174,44H50.9a.479.479,0,0,0-.456.388l-.729,3.252H65.4Z" transform="translate(-47.778 -42.307)"/><path class="a" d="M100.09,8.412a.508.508,0,0,0,0-1.016,1.185,1.185,0,1,1,.61-2.2h1.342a2.2,2.2,0,1,0-1.952,3.217Z" transform="translate(-94.223 -4.011)"/><path class="a" d="M428.147,116.085v-7.718l-1.762,7.266A4.037,4.037,0,0,1,428.147,116.085Z" transform="translate(-409.84 -103.683)"/><path class="a" d="M20.119,147.864,21.439,142H5.683l-1.67,7.415a.538.538,0,0,0,.088.434.46.46,0,0,0,.371.194H17.161a3.8,3.8,0,0,1,2.958-2.179Zm-2.906-4.425H18.47a.509.509,0,0,1,0,1.016H17.212a.509.509,0,0,1,0-1.016Zm-.629,2.032h1.258a.509.509,0,0,1,0,1.016H16.583a.509.509,0,0,1,0-1.016ZM8.09,148.519H6.831a.509.509,0,0,1,0-1.016H8.09a.509.509,0,0,1,0,1.016Zm.315-2.032H7.146a.509.509,0,0,1,0-1.016H8.4a.509.509,0,0,1,0,1.016Zm.629-2.032H7.775a.509.509,0,0,1,0-1.016H9.033a.509.509,0,0,1,0,1.016Zm2.2,4.064H9.977a.509.509,0,0,1,0-1.016h1.258a.509.509,0,0,1,0,1.016Zm.315-2.032H10.292a.509.509,0,0,1,0-1.016H11.55a.509.509,0,0,1,0,1.016Zm.629-2.032H10.921a.509.509,0,0,1,0-1.016h1.258a.509.509,0,0,1,0,1.016Zm2.2,4.064H13.123a.509.509,0,0,1,0-1.016h1.258a.509.509,0,0,1,0,1.016Zm.315-2.032H13.437a.509.509,0,0,1,0-1.016H14.7a.509.509,0,0,1,0,1.016Zm.629-2.032H14.066a.509.509,0,0,1,0-1.016h1.258a.509.509,0,0,1,0,1.016Z" transform="translate(-4 -135.797)"/><path class="a" d="M68,344v1.355a.508.508,0,0,0,.508.508H79.037a4.069,4.069,0,0,1,.2-1.862Z" transform="translate(-65.291 -329.032)"/><path class="a" d="M477.585,44h-.814a1.01,1.01,0,0,1,.137.508V54.755a4.1,4.1,0,0,1,1.185,1.333V44.508A.508.508,0,0,0,477.585,44Z" transform="translate(-458.093 -42.307)"/><path class="a" d="M343.556,292a3.556,3.556,0,1,0,3.556,3.556A3.556,3.556,0,0,0,343.556,292Zm1.016,4.064h-.508v.508a.508.508,0,1,1-1.016,0v-.508h-.508a.508.508,0,1,1,0-1.016h.508v-.508a.508.508,0,1,1,1.016,0v.508h.508a.508.508,0,1,1,0,1.016Z" transform="translate(-327.111 -279.111)"/></svg>