<svg xmlns="http://www.w3.org/2000/svg" width="50" height="60" viewBox="0 0 50 60"><defs><style>.a{fill:#fff;}</style></defs><path class="a" d="M31.708,60A2.279,2.279,0,0,1,29.5,57.656c0-11.76,9.012-21.328,20.088-21.328H52.9a19,19,0,0,1,6.616,1.184A2.383,2.383,0,0,1,60.873,40.5a2.178,2.178,0,0,1-2.811,1.442,14.826,14.826,0,0,0-5.162-.923H49.588c-8.642,0-15.673,7.465-15.673,16.641A2.279,2.279,0,0,1,31.708,60ZM65.924,15.82C65.924,7.1,59.239,0,51.023,0s-14.9,7.1-14.9,15.82,6.684,15.82,14.9,15.82S65.924,24.544,65.924,15.82Zm-4.415,0c0,6.139-4.7,11.133-10.486,11.133S40.538,21.959,40.538,15.82s4.7-11.133,10.486-11.133S61.509,9.682,61.509,15.82ZM77.292,45.938H70.67V38.906a2.211,2.211,0,1,0-4.415,0v7.031H59.632a2.348,2.348,0,0,0,0,4.688h6.623v7.031a2.211,2.211,0,1,0,4.415,0V50.625h6.623a2.348,2.348,0,0,0,0-4.687Z" transform="translate(-29.5)"/></svg>