<?xml version="1.0" encoding="utf-8"?>
<!-- Generator: Adobe Illustrator 22.1.0, SVG Export Plug-In . SVG Version: 6.00 Build 0)  -->
<svg version="1.1" id="Layer_1" xmlns="http://www.w3.org/2000/svg" xmlns:xlink="http://www.w3.org/1999/xlink" x="0px" y="0px"
	 viewBox="0 0 18 20" style="enable-background:new 0 0 18 20;" xml:space="preserve">
<style type="text/css">
	.st0{opacity:0.2;}
</style>
<path class="st0" d="M4,14h7v2H4V14z M4,10h10v2H4V10z M4,6h10v2H4V6z M16,2h-4.2C11.3,0.4,9.6-0.4,8,0.2C7.2,0.5,6.5,1.1,6.2,2H2
	C1.9,2,1.7,2,1.6,2C1,2.2,0.4,2.6,0.2,3.2C0.1,3.5,0,3.7,0,4v14c0,0.3,0.1,0.5,0.2,0.8c0.1,0.2,0.2,0.5,0.4,0.6
	c0.3,0.3,0.6,0.5,1,0.5c0.1,0,0.3,0,0.4,0h14c1.1,0,2-0.9,2-2V4C18,2.9,17.1,2,16,2z M9,1.8c0.4,0,0.8,0.3,0.8,0.7S9.4,3.3,9,3.3
	S8.3,2.9,8.3,2.5C8.3,2.1,8.6,1.8,9,1.8z M16,18H2V4h14V18z"/>
</svg>
