<svg xmlns="http://www.w3.org/2000/svg" width="20" height="20" viewBox="0 0 20 20"><defs><style>.a,.c{fill:none;}.a{stroke:#827f7f;}.b{stroke:none;}</style></defs><g transform="translate(-216 -827)"><path class="a" d="M4892,835.5v10.9" transform="translate(-4673.334 -3.835)"/><path class="a" d="M4892,835.5v11.163" transform="translate(-4665.78 -4.096)"/><path class="a" d="M0,0V15.373" transform="translate(234.428 838.053) rotate(90)"/><path class="a" d="M4892,835.5v6.15" transform="translate(-4658.227 -3.835)"/><g transform="translate(217 841.983)"><g class="a" transform="translate(-1 0.017)"><circle class="b" cx="2.5" cy="2.5" r="2.5"/><circle class="c" cx="2.5" cy="2.5" r="2"/></g><g class="a" transform="translate(7 0.017)"><circle class="b" cx="2.5" cy="2.5" r="2.5"/><circle class="c" cx="2.5" cy="2.5" r="2"/></g></g><g transform="translate(216 827)"><g class="a" transform="translate(0 0)"><circle class="b" cx="2.5" cy="2.5" r="2.5"/><circle class="c" cx="2.5" cy="2.5" r="2"/></g><g class="a" transform="translate(8 0)"><circle class="b" cx="2.5" cy="2.5" r="2.5"/><circle class="c" cx="2.5" cy="2.5" r="2"/></g><g class="a" transform="translate(15 0)"><circle class="b" cx="2.5" cy="2.5" r="2.5"/><circle class="c" cx="2.5" cy="2.5" r="2"/></g></g></g></svg>