<?xml version="1.0" encoding="utf-8"?>
<!-- Generator: Adobe Illustrator 22.1.0, SVG Export Plug-In . SVG Version: 6.00 Build 0)  -->
<svg version="1.1" id="Layer_1" xmlns="http://www.w3.org/2000/svg" xmlns:xlink="http://www.w3.org/1999/xlink" x="0px" y="0px"
	 viewBox="0 0 27.5 22.5" style="enable-background:new 0 0 27.5 22.5;" xml:space="preserve">
<style type="text/css">
	.st0{fill:#C8102E;}
</style>
<circle class="st0" cx="16.9" cy="9.4" r="1.6"/>
<circle class="st0" cx="10.6" cy="9.4" r="1.6"/>
<path class="st0" d="M18.9,13.7H8.6c-0.2,0-0.3,0.1-0.3,0.3c0,0.1,0,0.1,0,0.1c1.6,3,5.2,4.2,8.2,2.6c1.1-0.6,2-1.5,2.6-2.6
	c0.1-0.2,0-0.4-0.2-0.4C19,13.7,18.9,13.7,18.9,13.7z M27.4,10.4c-0.3-1.9-1.7-3.4-3.5-4c-0.7-1.4-1.6-2.6-2.7-3.6
	c-4.7-4.1-11.8-3.6-15.9,1C4.6,4.6,4,5.5,3.6,6.4c-1.8,0.5-3.2,2.1-3.5,4c-0.1,0.5-0.1,1.1,0,1.6c0.3,1.9,1.7,3.4,3.5,4
	c0.7,1.4,1.6,2.6,2.7,3.6c4.2,3.8,10.7,3.8,14.9,0c1.1-1,2.1-2.2,2.7-3.6c1.8-0.5,3.2-2.1,3.5-4C27.5,11.5,27.5,10.9,27.4,10.4
	L27.4,10.4z M22.5,13.7c-0.1,0-0.2,0-0.4,0c-0.2,0.8-0.6,1.6-1.1,2.3c-2.6,4-8,5.2-12.1,2.5C8,17.9,7.1,17,6.4,16
	c-0.5-0.7-0.8-1.5-1.1-2.3c-0.1,0-0.2,0-0.4,0c-1.4,0-2.5-1.1-2.5-2.5S3.6,8.7,5,8.7c0.1,0,0.2,0,0.4,0C5.6,7.9,6,7.2,6.4,6.4
	c2.6-4,8-5.2,12.1-2.5c1,0.7,1.9,1.5,2.5,2.5c0.5,0.7,0.8,1.5,1.1,2.3c0.1,0,0.2,0,0.4,0c1.4,0,2.5,1.1,2.5,2.5S23.9,13.7,22.5,13.7
	L22.5,13.7z"/>
</svg>
