<svg xmlns="http://www.w3.org/2000/svg" width="35" height="35" viewBox="0 0 35 35"><defs><style>.a{fill:#c8102e;}</style></defs><g transform="translate(0 -15.5)"><path class="a" d="M27.8,15.5H7.2C3.229,15.5,0,19,0,23.307c0,4.326,3.262,7.807,7.154,7.807h3.233V25a4.791,4.791,0,0,1,4.58-4.968h.01A4.8,4.8,0,0,1,19.547,25v6.117H27.8c3.969,0,7.2-3.5,7.2-7.807S31.771,15.5,27.8,15.5Zm2.037,6.719-4.1,4.449a.97.97,0,0,1-1.45,0l-2.051-2.225a1.18,1.18,0,0,1,0-1.573.97.97,0,0,1,1.45,0l1.326,1.438,3.377-3.663a.97.97,0,0,1,1.45,0A1.18,1.18,0,0,1,29.839,22.219Z"/><path class="a" d="M106.4,118.572l-7.16-.744v-8.5a2.744,2.744,0,1,0-5.487,0v14.231h-.025l-2.708-2.262a2.639,2.639,0,1,0-3.382,4.052l5.5,4.587h16.19v-8.05A3.337,3.337,0,0,0,106.4,118.572Z" transform="translate(-81.508 -84.693)"/><path class="a" d="M181.95,453.725a1.112,1.112,0,0,0,1.112,1.112h13.347a1.112,1.112,0,0,0,1.112-1.112V451.5H181.95Z" transform="translate(-170.245 -404.337)"/></g></svg>