<svg xmlns="http://www.w3.org/2000/svg" width="25" height="24" viewBox="0 0 25 24"><defs><style>.a{fill:#c8102e;}</style></defs><g transform="translate(0 -25)"><path class="a" d="M25,32.481V29.416a2.273,2.273,0,0,0-2.2-2.338H22.51v2.857a.734.734,0,1,1-1.465,0V25.779a.734.734,0,1,0-1.465,0v1.3H14.7v2.857a.734.734,0,1,1-1.465,0V25.779a.734.734,0,1,0-1.465,0v1.3H6.885v2.857a.734.734,0,1,1-1.465,0V25.779A.757.757,0,0,0,4.688,25a.757.757,0,0,0-.732.779v1.3H2.2A2.273,2.273,0,0,0,0,29.416v3.065Z"/><path class="a" d="M0,199v12.623a2.273,2.273,0,0,0,2.2,2.338H22.8a2.273,2.273,0,0,0,2.2-2.338V199Zm7.031,10.805H5.469a.781.781,0,0,1,0-1.558H7.031a.781.781,0,0,1,0,1.558Zm0-3.325H5.469a.781.781,0,0,1,0-1.558H7.031a.781.781,0,0,1,0,1.558Zm0-3.325H5.469a.781.781,0,0,1,0-1.558H7.031a.781.781,0,0,1,0,1.558Zm6.25,6.649H11.719a.781.781,0,0,1,0-1.558h1.563a.781.781,0,0,1,0,1.558Zm0-3.325H11.719a.781.781,0,0,1,0-1.558h1.563a.781.781,0,0,1,0,1.558Zm0-3.325H11.719a.781.781,0,0,1,0-1.558h1.563a.781.781,0,0,1,0,1.558Zm6.25,6.649H17.969a.781.781,0,0,1,0-1.558h1.563a.781.781,0,0,1,0,1.558Zm0-3.325H17.969a.781.781,0,0,1,0-1.558h1.563a.781.781,0,0,1,0,1.558Zm0-3.325H17.969a.781.781,0,0,1,0-1.558h1.563a.781.781,0,0,1,0,1.558Z" transform="translate(0 -164.961)"/></g></svg>