<svg width="26" height="22" viewBox="0 0 26 22" fill="none" xmlns="http://www.w3.org/2000/svg">
<mask id="path-1-outside-1_832_5122" maskUnits="userSpaceOnUse" x="-0.804688" y="-0.544922" width="27" height="22" fill="black">
<rect fill="white" x="-0.804688" y="-0.544922" width="27" height="22"/>
<path d="M23.8216 2.09939H21.8751V1.28765C21.8745 1.06714 21.7866 0.855523 21.6307 0.699627C21.4746 0.543541 21.2632 0.45562 21.0425 0.455087H19.6847C19.4642 0.455621 19.2526 0.543541 19.0967 0.699627C18.9406 0.855536 18.8527 1.06715 18.8521 1.28765V2.0992L14.1957 2.09938V1.28765C14.1953 1.06714 14.1074 0.855518 13.9513 0.699623C13.7952 0.543537 13.5838 0.455615 13.3631 0.455082H12.0055C11.7848 0.455616 11.5734 0.543537 11.4173 0.699623C11.2614 0.855532 11.1735 1.06715 11.1729 1.28765V2.0992L6.5165 2.09938V1.28764C6.51597 1.06713 6.42822 0.855514 6.27214 0.699619C6.11605 0.543532 5.90461 0.455611 5.68393 0.455078H4.3265C4.10581 0.455612 3.89437 0.543532 3.73829 0.699619C3.58238 0.855528 3.49446 1.06714 3.49393 1.28764V2.0992L1.54633 2.09937C1.18806 2.09973 0.844768 2.24229 0.591488 2.49555C0.338227 2.74881 0.195668 3.09214 0.195312 3.45021V19.6749C0.195491 20.0331 0.337872 20.3768 0.591133 20.6303C0.844394 20.8837 1.18791 21.0263 1.54634 21.0266H23.8221C24.1805 21.0263 24.524 20.8837 24.7773 20.6303C25.0306 20.3768 25.1729 20.0332 25.1731 19.6749V3.45021C25.1728 3.09212 25.0302 2.74878 24.777 2.49555C24.5237 2.24229 24.1804 2.09973 23.8221 2.09937L23.8216 2.09939ZM19.5341 1.28765C19.5352 1.20507 19.6021 1.13833 19.6847 1.13726H21.0416C21.1242 1.13851 21.1909 1.20507 21.192 1.28765V3.59369C21.1911 3.67644 21.1243 3.74318 21.0416 3.74443H19.6847C19.6021 3.74319 19.5352 3.67644 19.5341 3.59369V1.28765ZM11.8551 1.28765C11.8564 1.20507 11.9229 1.13851 12.0055 1.13726H13.3624C13.445 1.13851 13.5115 1.20507 13.5128 1.28765V3.59369C13.5117 3.67644 13.445 3.74318 13.3624 3.74443H12.0055C11.9229 3.74319 11.8562 3.67644 11.8551 3.59369V1.28765ZM4.17562 1.28765C4.17668 1.20507 4.2436 1.13833 4.32618 1.13726H5.68289C5.76547 1.13833 5.83239 1.20507 5.83346 1.28765V3.59369C5.83239 3.67644 5.76547 3.74318 5.68289 3.74443H4.32618C4.24343 3.74319 4.17669 3.67644 4.17562 3.59369V1.28765ZM1.546 2.78232H3.49273V3.59373H3.49255C3.49309 3.81442 3.58101 4.02586 3.73692 4.18194C3.893 4.33802 4.10444 4.42577 4.32512 4.4263H5.68164C5.90234 4.42577 6.11395 4.33802 6.26985 4.18194C6.42594 4.02585 6.51386 3.81442 6.51439 3.59373V2.78232H11.1722V3.59373C11.1726 3.81442 11.2605 4.02586 11.4166 4.18194C11.5727 4.33802 11.7841 4.42577 12.0048 4.4263H13.3617H13.3615C13.5822 4.42577 13.7936 4.33802 13.9497 4.18194C14.1058 4.02585 14.1937 3.81442 14.194 3.59373V2.78232H18.8514V3.59373C18.8519 3.81442 18.9397 4.02586 19.0958 4.18194C19.2519 4.33802 19.4633 4.42577 19.684 4.4263H21.0409C21.2616 4.42577 21.473 4.33802 21.6289 4.18194C21.785 4.02585 21.8729 3.81442 21.8734 3.59373V2.78232H23.8216C23.9987 2.78249 24.1684 2.85297 24.2937 2.97827C24.4188 3.10339 24.4893 3.27318 24.4895 3.45025V5.88887H0.877864V3.45025C0.878042 3.27316 0.948521 3.10337 1.07364 2.97827C1.19894 2.85297 1.36873 2.78249 1.5458 2.78232H1.546ZM23.8218 20.3429H1.546C1.36891 20.3425 1.19912 20.2722 1.07384 20.1469C0.948722 20.0218 0.878243 19.852 0.878065 19.6749V6.57218H24.4897V19.6749C24.4895 19.852 24.419 20.0218 24.2939 20.1469C24.1686 20.2722 23.9988 20.3425 23.8218 20.3429H23.8218ZM6.36419 8.47165H3.63739C3.39392 8.47219 3.16077 8.56918 2.98886 8.74129C2.81676 8.91357 2.72012 9.14672 2.71958 9.39018V11.0267V11.0265C2.71993 11.2702 2.81675 11.5039 2.98904 11.6761C3.16132 11.8484 3.39501 11.9454 3.63866 11.9456H6.36473C6.60838 11.9454 6.84209 11.8484 7.01436 11.6761C7.18663 11.5038 7.28346 11.2702 7.28382 11.0265V9.39019C7.28346 9.14636 7.18664 8.91283 7.01436 8.74056C6.84207 8.56829 6.60839 8.47128 6.36473 8.47111L6.36419 8.47165ZM6.60054 11.0272V11.0271C6.60037 11.1575 6.49465 11.2632 6.36419 11.2632H3.63739C3.50764 11.2616 3.40282 11.1568 3.40122 11.0271V9.39019C3.403 9.26044 3.50764 9.15579 3.63739 9.15401H6.36469C6.49515 9.15401 6.60087 9.25973 6.60105 9.39019L6.60054 11.0272ZM14.3384 8.47165H11.6114C11.3677 8.47183 11.1342 8.56883 10.9619 8.74111C10.7897 8.9134 10.6926 9.1469 10.6923 9.39074V11.0272V11.0271C10.6926 11.2707 10.7896 11.5044 10.9619 11.6767C11.1342 11.849 11.3677 11.946 11.6114 11.9461H14.3389C14.5825 11.946 14.8162 11.849 14.9885 11.6767C15.1607 11.5044 15.2578 11.2707 15.2581 11.0271V9.39019C15.2578 9.14636 15.1608 8.91284 14.9885 8.74057C14.8162 8.5683 14.5825 8.47129 14.3389 8.47111L14.3384 8.47165ZM14.5747 11.0272V11.0271C14.5745 11.1575 14.4688 11.2632 14.3384 11.2632H11.6114C11.4818 11.2616 11.377 11.1568 11.3754 11.0271V9.39019C11.3772 9.26044 11.4818 9.15579 11.6114 9.15401H14.3389C14.4693 9.15401 14.575 9.25973 14.5752 9.39019L14.5747 11.0272ZM22.3125 8.47165H19.5863C19.3426 8.47183 19.1089 8.56883 18.9366 8.74111C18.7644 8.9134 18.6674 9.1469 18.6672 9.39074V11.0272V11.0271C18.6675 11.2707 18.7645 11.5042 18.9368 11.6763C19.1091 11.8484 19.3426 11.9454 19.5863 11.9456H22.3131C22.5567 11.9454 22.7904 11.8484 22.9627 11.6761C23.1349 11.5039 23.2318 11.2702 23.2321 11.0265V9.3902C23.2318 9.14637 23.135 8.91284 22.9627 8.74057C22.7904 8.5683 22.5567 8.47129 22.3131 8.47112L22.3125 8.47165ZM22.5485 11.0272L22.5487 11.0271C22.5469 11.1568 22.4423 11.2614 22.3125 11.2632H19.5863C19.4558 11.2631 19.3503 11.1573 19.3501 11.0271V9.39019C19.351 9.26026 19.4563 9.15544 19.5863 9.15544H22.3131C22.4428 9.15704 22.5475 9.26187 22.5492 9.39144L22.5485 11.0272ZM6.36486 14.9691H3.63756C3.39408 14.9696 3.16075 15.0668 2.98885 15.2389C2.81674 15.4112 2.7201 15.6447 2.71975 15.8882V17.5248C2.7201 17.7685 2.81692 18.002 2.98921 18.1743C3.16149 18.3465 3.39517 18.4436 3.63883 18.4439H6.3649C6.60855 18.4436 6.84226 18.3466 7.01453 18.1743C7.1868 18.002 7.28362 17.7685 7.28398 17.5248V15.8882C7.28363 15.6443 7.18681 15.4108 7.01453 15.2385C6.84224 15.0663 6.60856 14.9692 6.3649 14.9691L6.36486 14.9691ZM6.60121 17.5248C6.60086 17.6551 6.49514 17.7607 6.36486 17.7608H3.63756C3.50781 17.7591 3.40317 17.6544 3.40138 17.5248V15.8882C3.40316 15.7584 3.50781 15.6538 3.63756 15.652H6.36486C6.49532 15.652 6.60104 15.7577 6.60121 15.8882V17.5248ZM14.339 14.9691H11.6115C11.3679 14.9693 11.1344 15.0663 10.9621 15.2385C10.7898 15.4108 10.6928 15.6443 10.6925 15.8882V17.5248C10.6928 17.7685 10.7898 18.002 10.9621 18.1743C11.1344 18.3466 11.3679 18.4436 11.6115 18.4439H14.339C14.5827 18.4436 14.8164 18.3467 14.9886 18.1743C15.1609 18.002 15.2579 17.7685 15.2583 17.5248V15.8882C15.2579 15.6443 15.1609 15.4108 14.9886 15.2385C14.8164 15.0663 14.5827 14.9693 14.339 14.9691ZM14.5754 17.5248C14.575 17.6551 14.4693 17.7607 14.339 17.7608H11.6115C11.482 17.7591 11.3773 17.6544 11.3755 17.5248V15.8882C11.3773 15.7584 11.482 15.6538 11.6115 15.652H14.339C14.4695 15.652 14.5752 15.7577 14.5754 15.8882V17.5248ZM22.3132 14.9691H19.5864C19.3427 14.9693 19.109 15.0663 18.9368 15.2385C18.7645 15.4108 18.6675 15.6443 18.6673 15.8882V17.5248C18.6675 17.7685 18.7645 18.002 18.9368 18.1743C19.109 18.3466 19.3427 18.4436 19.5864 18.4439H22.3132C22.5568 18.4436 22.7905 18.3466 22.9628 18.1743C23.1351 18.002 23.2319 17.7685 23.2323 17.5248V15.8882C23.2319 15.6443 23.1351 15.4108 22.9628 15.2385C22.7905 15.0663 22.5568 14.9693 22.3132 14.9691ZM22.5492 17.5248H22.5494C22.5476 17.6544 22.4429 17.7591 22.3132 17.7608H19.5864C19.4559 17.7607 19.3504 17.6551 19.3502 17.5248V15.8882C19.3504 15.7577 19.4559 15.6522 19.5864 15.652H22.3132C22.4429 15.6538 22.5476 15.7584 22.5494 15.8882L22.5492 17.5248Z"/>
</mask>
<path d="M23.8216 2.09939H21.8751V1.28765C21.8745 1.06714 21.7866 0.855523 21.6307 0.699627C21.4746 0.543541 21.2632 0.45562 21.0425 0.455087H19.6847C19.4642 0.455621 19.2526 0.543541 19.0967 0.699627C18.9406 0.855536 18.8527 1.06715 18.8521 1.28765V2.0992L14.1957 2.09938V1.28765C14.1953 1.06714 14.1074 0.855518 13.9513 0.699623C13.7952 0.543537 13.5838 0.455615 13.3631 0.455082H12.0055C11.7848 0.455616 11.5734 0.543537 11.4173 0.699623C11.2614 0.855532 11.1735 1.06715 11.1729 1.28765V2.0992L6.5165 2.09938V1.28764C6.51597 1.06713 6.42822 0.855514 6.27214 0.699619C6.11605 0.543532 5.90461 0.455611 5.68393 0.455078H4.3265C4.10581 0.455612 3.89437 0.543532 3.73829 0.699619C3.58238 0.855528 3.49446 1.06714 3.49393 1.28764V2.0992L1.54633 2.09937C1.18806 2.09973 0.844768 2.24229 0.591488 2.49555C0.338227 2.74881 0.195668 3.09214 0.195312 3.45021V19.6749C0.195491 20.0331 0.337872 20.3768 0.591133 20.6303C0.844394 20.8837 1.18791 21.0263 1.54634 21.0266H23.8221C24.1805 21.0263 24.524 20.8837 24.7773 20.6303C25.0306 20.3768 25.1729 20.0332 25.1731 19.6749V3.45021C25.1728 3.09212 25.0302 2.74878 24.777 2.49555C24.5237 2.24229 24.1804 2.09973 23.8221 2.09937L23.8216 2.09939ZM19.5341 1.28765C19.5352 1.20507 19.6021 1.13833 19.6847 1.13726H21.0416C21.1242 1.13851 21.1909 1.20507 21.192 1.28765V3.59369C21.1911 3.67644 21.1243 3.74318 21.0416 3.74443H19.6847C19.6021 3.74319 19.5352 3.67644 19.5341 3.59369V1.28765ZM11.8551 1.28765C11.8564 1.20507 11.9229 1.13851 12.0055 1.13726H13.3624C13.445 1.13851 13.5115 1.20507 13.5128 1.28765V3.59369C13.5117 3.67644 13.445 3.74318 13.3624 3.74443H12.0055C11.9229 3.74319 11.8562 3.67644 11.8551 3.59369V1.28765ZM4.17562 1.28765C4.17668 1.20507 4.2436 1.13833 4.32618 1.13726H5.68289C5.76547 1.13833 5.83239 1.20507 5.83346 1.28765V3.59369C5.83239 3.67644 5.76547 3.74318 5.68289 3.74443H4.32618C4.24343 3.74319 4.17669 3.67644 4.17562 3.59369V1.28765ZM1.546 2.78232H3.49273V3.59373H3.49255C3.49309 3.81442 3.58101 4.02586 3.73692 4.18194C3.893 4.33802 4.10444 4.42577 4.32512 4.4263H5.68164C5.90234 4.42577 6.11395 4.33802 6.26985 4.18194C6.42594 4.02585 6.51386 3.81442 6.51439 3.59373V2.78232H11.1722V3.59373C11.1726 3.81442 11.2605 4.02586 11.4166 4.18194C11.5727 4.33802 11.7841 4.42577 12.0048 4.4263H13.3617H13.3615C13.5822 4.42577 13.7936 4.33802 13.9497 4.18194C14.1058 4.02585 14.1937 3.81442 14.194 3.59373V2.78232H18.8514V3.59373C18.8519 3.81442 18.9397 4.02586 19.0958 4.18194C19.2519 4.33802 19.4633 4.42577 19.684 4.4263H21.0409C21.2616 4.42577 21.473 4.33802 21.6289 4.18194C21.785 4.02585 21.8729 3.81442 21.8734 3.59373V2.78232H23.8216C23.9987 2.78249 24.1684 2.85297 24.2937 2.97827C24.4188 3.10339 24.4893 3.27318 24.4895 3.45025V5.88887H0.877864V3.45025C0.878042 3.27316 0.948521 3.10337 1.07364 2.97827C1.19894 2.85297 1.36873 2.78249 1.5458 2.78232H1.546ZM23.8218 20.3429H1.546C1.36891 20.3425 1.19912 20.2722 1.07384 20.1469C0.948722 20.0218 0.878243 19.852 0.878065 19.6749V6.57218H24.4897V19.6749C24.4895 19.852 24.419 20.0218 24.2939 20.1469C24.1686 20.2722 23.9988 20.3425 23.8218 20.3429H23.8218ZM6.36419 8.47165H3.63739C3.39392 8.47219 3.16077 8.56918 2.98886 8.74129C2.81676 8.91357 2.72012 9.14672 2.71958 9.39018V11.0267V11.0265C2.71993 11.2702 2.81675 11.5039 2.98904 11.6761C3.16132 11.8484 3.39501 11.9454 3.63866 11.9456H6.36473C6.60838 11.9454 6.84209 11.8484 7.01436 11.6761C7.18663 11.5038 7.28346 11.2702 7.28382 11.0265V9.39019C7.28346 9.14636 7.18664 8.91283 7.01436 8.74056C6.84207 8.56829 6.60839 8.47128 6.36473 8.47111L6.36419 8.47165ZM6.60054 11.0272V11.0271C6.60037 11.1575 6.49465 11.2632 6.36419 11.2632H3.63739C3.50764 11.2616 3.40282 11.1568 3.40122 11.0271V9.39019C3.403 9.26044 3.50764 9.15579 3.63739 9.15401H6.36469C6.49515 9.15401 6.60087 9.25973 6.60105 9.39019L6.60054 11.0272ZM14.3384 8.47165H11.6114C11.3677 8.47183 11.1342 8.56883 10.9619 8.74111C10.7897 8.9134 10.6926 9.1469 10.6923 9.39074V11.0272V11.0271C10.6926 11.2707 10.7896 11.5044 10.9619 11.6767C11.1342 11.849 11.3677 11.946 11.6114 11.9461H14.3389C14.5825 11.946 14.8162 11.849 14.9885 11.6767C15.1607 11.5044 15.2578 11.2707 15.2581 11.0271V9.39019C15.2578 9.14636 15.1608 8.91284 14.9885 8.74057C14.8162 8.5683 14.5825 8.47129 14.3389 8.47111L14.3384 8.47165ZM14.5747 11.0272V11.0271C14.5745 11.1575 14.4688 11.2632 14.3384 11.2632H11.6114C11.4818 11.2616 11.377 11.1568 11.3754 11.0271V9.39019C11.3772 9.26044 11.4818 9.15579 11.6114 9.15401H14.3389C14.4693 9.15401 14.575 9.25973 14.5752 9.39019L14.5747 11.0272ZM22.3125 8.47165H19.5863C19.3426 8.47183 19.1089 8.56883 18.9366 8.74111C18.7644 8.9134 18.6674 9.1469 18.6672 9.39074V11.0272V11.0271C18.6675 11.2707 18.7645 11.5042 18.9368 11.6763C19.1091 11.8484 19.3426 11.9454 19.5863 11.9456H22.3131C22.5567 11.9454 22.7904 11.8484 22.9627 11.6761C23.1349 11.5039 23.2318 11.2702 23.2321 11.0265V9.3902C23.2318 9.14637 23.135 8.91284 22.9627 8.74057C22.7904 8.5683 22.5567 8.47129 22.3131 8.47112L22.3125 8.47165ZM22.5485 11.0272L22.5487 11.0271C22.5469 11.1568 22.4423 11.2614 22.3125 11.2632H19.5863C19.4558 11.2631 19.3503 11.1573 19.3501 11.0271V9.39019C19.351 9.26026 19.4563 9.15544 19.5863 9.15544H22.3131C22.4428 9.15704 22.5475 9.26187 22.5492 9.39144L22.5485 11.0272ZM6.36486 14.9691H3.63756C3.39408 14.9696 3.16075 15.0668 2.98885 15.2389C2.81674 15.4112 2.7201 15.6447 2.71975 15.8882V17.5248C2.7201 17.7685 2.81692 18.002 2.98921 18.1743C3.16149 18.3465 3.39517 18.4436 3.63883 18.4439H6.3649C6.60855 18.4436 6.84226 18.3466 7.01453 18.1743C7.1868 18.002 7.28362 17.7685 7.28398 17.5248V15.8882C7.28363 15.6443 7.18681 15.4108 7.01453 15.2385C6.84224 15.0663 6.60856 14.9692 6.3649 14.9691L6.36486 14.9691ZM6.60121 17.5248C6.60086 17.6551 6.49514 17.7607 6.36486 17.7608H3.63756C3.50781 17.7591 3.40317 17.6544 3.40138 17.5248V15.8882C3.40316 15.7584 3.50781 15.6538 3.63756 15.652H6.36486C6.49532 15.652 6.60104 15.7577 6.60121 15.8882V17.5248ZM14.339 14.9691H11.6115C11.3679 14.9693 11.1344 15.0663 10.9621 15.2385C10.7898 15.4108 10.6928 15.6443 10.6925 15.8882V17.5248C10.6928 17.7685 10.7898 18.002 10.9621 18.1743C11.1344 18.3466 11.3679 18.4436 11.6115 18.4439H14.339C14.5827 18.4436 14.8164 18.3467 14.9886 18.1743C15.1609 18.002 15.2579 17.7685 15.2583 17.5248V15.8882C15.2579 15.6443 15.1609 15.4108 14.9886 15.2385C14.8164 15.0663 14.5827 14.9693 14.339 14.9691ZM14.5754 17.5248C14.575 17.6551 14.4693 17.7607 14.339 17.7608H11.6115C11.482 17.7591 11.3773 17.6544 11.3755 17.5248V15.8882C11.3773 15.7584 11.482 15.6538 11.6115 15.652H14.339C14.4695 15.652 14.5752 15.7577 14.5754 15.8882V17.5248ZM22.3132 14.9691H19.5864C19.3427 14.9693 19.109 15.0663 18.9368 15.2385C18.7645 15.4108 18.6675 15.6443 18.6673 15.8882V17.5248C18.6675 17.7685 18.7645 18.002 18.9368 18.1743C19.109 18.3466 19.3427 18.4436 19.5864 18.4439H22.3132C22.5568 18.4436 22.7905 18.3466 22.9628 18.1743C23.1351 18.002 23.2319 17.7685 23.2323 17.5248V15.8882C23.2319 15.6443 23.1351 15.4108 22.9628 15.2385C22.7905 15.0663 22.5568 14.9693 22.3132 14.9691ZM22.5492 17.5248H22.5494C22.5476 17.6544 22.4429 17.7591 22.3132 17.7608H19.5864C19.4559 17.7607 19.3504 17.6551 19.3502 17.5248V15.8882C19.3504 15.7577 19.4559 15.6522 19.5864 15.652H22.3132C22.4429 15.6538 22.5476 15.7584 22.5494 15.8882L22.5492 17.5248Z" fill="white"/>
<path d="M23.8216 2.09939H21.8751V1.28765C21.8745 1.06714 21.7866 0.855523 21.6307 0.699627C21.4746 0.543541 21.2632 0.45562 21.0425 0.455087H19.6847C19.4642 0.455621 19.2526 0.543541 19.0967 0.699627C18.9406 0.855536 18.8527 1.06715 18.8521 1.28765V2.0992L14.1957 2.09938V1.28765C14.1953 1.06714 14.1074 0.855518 13.9513 0.699623C13.7952 0.543537 13.5838 0.455615 13.3631 0.455082H12.0055C11.7848 0.455616 11.5734 0.543537 11.4173 0.699623C11.2614 0.855532 11.1735 1.06715 11.1729 1.28765V2.0992L6.5165 2.09938V1.28764C6.51597 1.06713 6.42822 0.855514 6.27214 0.699619C6.11605 0.543532 5.90461 0.455611 5.68393 0.455078H4.3265C4.10581 0.455612 3.89437 0.543532 3.73829 0.699619C3.58238 0.855528 3.49446 1.06714 3.49393 1.28764V2.0992L1.54633 2.09937C1.18806 2.09973 0.844768 2.24229 0.591488 2.49555C0.338227 2.74881 0.195668 3.09214 0.195312 3.45021V19.6749C0.195491 20.0331 0.337872 20.3768 0.591133 20.6303C0.844394 20.8837 1.18791 21.0263 1.54634 21.0266H23.8221C24.1805 21.0263 24.524 20.8837 24.7773 20.6303C25.0306 20.3768 25.1729 20.0332 25.1731 19.6749V3.45021C25.1728 3.09212 25.0302 2.74878 24.777 2.49555C24.5237 2.24229 24.1804 2.09973 23.8221 2.09937L23.8216 2.09939ZM19.5341 1.28765C19.5352 1.20507 19.6021 1.13833 19.6847 1.13726H21.0416C21.1242 1.13851 21.1909 1.20507 21.192 1.28765V3.59369C21.1911 3.67644 21.1243 3.74318 21.0416 3.74443H19.6847C19.6021 3.74319 19.5352 3.67644 19.5341 3.59369V1.28765ZM11.8551 1.28765C11.8564 1.20507 11.9229 1.13851 12.0055 1.13726H13.3624C13.445 1.13851 13.5115 1.20507 13.5128 1.28765V3.59369C13.5117 3.67644 13.445 3.74318 13.3624 3.74443H12.0055C11.9229 3.74319 11.8562 3.67644 11.8551 3.59369V1.28765ZM4.17562 1.28765C4.17668 1.20507 4.2436 1.13833 4.32618 1.13726H5.68289C5.76547 1.13833 5.83239 1.20507 5.83346 1.28765V3.59369C5.83239 3.67644 5.76547 3.74318 5.68289 3.74443H4.32618C4.24343 3.74319 4.17669 3.67644 4.17562 3.59369V1.28765ZM1.546 2.78232H3.49273V3.59373H3.49255C3.49309 3.81442 3.58101 4.02586 3.73692 4.18194C3.893 4.33802 4.10444 4.42577 4.32512 4.4263H5.68164C5.90234 4.42577 6.11395 4.33802 6.26985 4.18194C6.42594 4.02585 6.51386 3.81442 6.51439 3.59373V2.78232H11.1722V3.59373C11.1726 3.81442 11.2605 4.02586 11.4166 4.18194C11.5727 4.33802 11.7841 4.42577 12.0048 4.4263H13.3617H13.3615C13.5822 4.42577 13.7936 4.33802 13.9497 4.18194C14.1058 4.02585 14.1937 3.81442 14.194 3.59373V2.78232H18.8514V3.59373C18.8519 3.81442 18.9397 4.02586 19.0958 4.18194C19.2519 4.33802 19.4633 4.42577 19.684 4.4263H21.0409C21.2616 4.42577 21.473 4.33802 21.6289 4.18194C21.785 4.02585 21.8729 3.81442 21.8734 3.59373V2.78232H23.8216C23.9987 2.78249 24.1684 2.85297 24.2937 2.97827C24.4188 3.10339 24.4893 3.27318 24.4895 3.45025V5.88887H0.877864V3.45025C0.878042 3.27316 0.948521 3.10337 1.07364 2.97827C1.19894 2.85297 1.36873 2.78249 1.5458 2.78232H1.546ZM23.8218 20.3429H1.546C1.36891 20.3425 1.19912 20.2722 1.07384 20.1469C0.948722 20.0218 0.878243 19.852 0.878065 19.6749V6.57218H24.4897V19.6749C24.4895 19.852 24.419 20.0218 24.2939 20.1469C24.1686 20.2722 23.9988 20.3425 23.8218 20.3429H23.8218ZM6.36419 8.47165H3.63739C3.39392 8.47219 3.16077 8.56918 2.98886 8.74129C2.81676 8.91357 2.72012 9.14672 2.71958 9.39018V11.0267V11.0265C2.71993 11.2702 2.81675 11.5039 2.98904 11.6761C3.16132 11.8484 3.39501 11.9454 3.63866 11.9456H6.36473C6.60838 11.9454 6.84209 11.8484 7.01436 11.6761C7.18663 11.5038 7.28346 11.2702 7.28382 11.0265V9.39019C7.28346 9.14636 7.18664 8.91283 7.01436 8.74056C6.84207 8.56829 6.60839 8.47128 6.36473 8.47111L6.36419 8.47165ZM6.60054 11.0272V11.0271C6.60037 11.1575 6.49465 11.2632 6.36419 11.2632H3.63739C3.50764 11.2616 3.40282 11.1568 3.40122 11.0271V9.39019C3.403 9.26044 3.50764 9.15579 3.63739 9.15401H6.36469C6.49515 9.15401 6.60087 9.25973 6.60105 9.39019L6.60054 11.0272ZM14.3384 8.47165H11.6114C11.3677 8.47183 11.1342 8.56883 10.9619 8.74111C10.7897 8.9134 10.6926 9.1469 10.6923 9.39074V11.0272V11.0271C10.6926 11.2707 10.7896 11.5044 10.9619 11.6767C11.1342 11.849 11.3677 11.946 11.6114 11.9461H14.3389C14.5825 11.946 14.8162 11.849 14.9885 11.6767C15.1607 11.5044 15.2578 11.2707 15.2581 11.0271V9.39019C15.2578 9.14636 15.1608 8.91284 14.9885 8.74057C14.8162 8.5683 14.5825 8.47129 14.3389 8.47111L14.3384 8.47165ZM14.5747 11.0272V11.0271C14.5745 11.1575 14.4688 11.2632 14.3384 11.2632H11.6114C11.4818 11.2616 11.377 11.1568 11.3754 11.0271V9.39019C11.3772 9.26044 11.4818 9.15579 11.6114 9.15401H14.3389C14.4693 9.15401 14.575 9.25973 14.5752 9.39019L14.5747 11.0272ZM22.3125 8.47165H19.5863C19.3426 8.47183 19.1089 8.56883 18.9366 8.74111C18.7644 8.9134 18.6674 9.1469 18.6672 9.39074V11.0272V11.0271C18.6675 11.2707 18.7645 11.5042 18.9368 11.6763C19.1091 11.8484 19.3426 11.9454 19.5863 11.9456H22.3131C22.5567 11.9454 22.7904 11.8484 22.9627 11.6761C23.1349 11.5039 23.2318 11.2702 23.2321 11.0265V9.3902C23.2318 9.14637 23.135 8.91284 22.9627 8.74057C22.7904 8.5683 22.5567 8.47129 22.3131 8.47112L22.3125 8.47165ZM22.5485 11.0272L22.5487 11.0271C22.5469 11.1568 22.4423 11.2614 22.3125 11.2632H19.5863C19.4558 11.2631 19.3503 11.1573 19.3501 11.0271V9.39019C19.351 9.26026 19.4563 9.15544 19.5863 9.15544H22.3131C22.4428 9.15704 22.5475 9.26187 22.5492 9.39144L22.5485 11.0272ZM6.36486 14.9691H3.63756C3.39408 14.9696 3.16075 15.0668 2.98885 15.2389C2.81674 15.4112 2.7201 15.6447 2.71975 15.8882V17.5248C2.7201 17.7685 2.81692 18.002 2.98921 18.1743C3.16149 18.3465 3.39517 18.4436 3.63883 18.4439H6.3649C6.60855 18.4436 6.84226 18.3466 7.01453 18.1743C7.1868 18.002 7.28362 17.7685 7.28398 17.5248V15.8882C7.28363 15.6443 7.18681 15.4108 7.01453 15.2385C6.84224 15.0663 6.60856 14.9692 6.3649 14.9691L6.36486 14.9691ZM6.60121 17.5248C6.60086 17.6551 6.49514 17.7607 6.36486 17.7608H3.63756C3.50781 17.7591 3.40317 17.6544 3.40138 17.5248V15.8882C3.40316 15.7584 3.50781 15.6538 3.63756 15.652H6.36486C6.49532 15.652 6.60104 15.7577 6.60121 15.8882V17.5248ZM14.339 14.9691H11.6115C11.3679 14.9693 11.1344 15.0663 10.9621 15.2385C10.7898 15.4108 10.6928 15.6443 10.6925 15.8882V17.5248C10.6928 17.7685 10.7898 18.002 10.9621 18.1743C11.1344 18.3466 11.3679 18.4436 11.6115 18.4439H14.339C14.5827 18.4436 14.8164 18.3467 14.9886 18.1743C15.1609 18.002 15.2579 17.7685 15.2583 17.5248V15.8882C15.2579 15.6443 15.1609 15.4108 14.9886 15.2385C14.8164 15.0663 14.5827 14.9693 14.339 14.9691ZM14.5754 17.5248C14.575 17.6551 14.4693 17.7607 14.339 17.7608H11.6115C11.482 17.7591 11.3773 17.6544 11.3755 17.5248V15.8882C11.3773 15.7584 11.482 15.6538 11.6115 15.652H14.339C14.4695 15.652 14.5752 15.7577 14.5754 15.8882V17.5248ZM22.3132 14.9691H19.5864C19.3427 14.9693 19.109 15.0663 18.9368 15.2385C18.7645 15.4108 18.6675 15.6443 18.6673 15.8882V17.5248C18.6675 17.7685 18.7645 18.002 18.9368 18.1743C19.109 18.3466 19.3427 18.4436 19.5864 18.4439H22.3132C22.5568 18.4436 22.7905 18.3466 22.9628 18.1743C23.1351 18.002 23.2319 17.7685 23.2323 17.5248V15.8882C23.2319 15.6443 23.1351 15.4108 22.9628 15.2385C22.7905 15.0663 22.5568 14.9693 22.3132 14.9691ZM22.5492 17.5248H22.5494C22.5476 17.6544 22.4429 17.7591 22.3132 17.7608H19.5864C19.4559 17.7607 19.3504 17.6551 19.3502 17.5248V15.8882C19.3504 15.7577 19.4559 15.6522 19.5864 15.652H22.3132C22.4429 15.6538 22.5476 15.7584 22.5494 15.8882L22.5492 17.5248Z" stroke="white" stroke-width="0.3" mask="url(#path-1-outside-1_832_5122)"/>
</svg>
