<?xml version="1.0" encoding="utf-8"?>
<!-- Generator: Adobe Illustrator 22.1.0, SVG Export Plug-In . SVG Version: 6.00 Build 0)  -->
<svg version="1.1" id="Layer_1" xmlns="http://www.w3.org/2000/svg" xmlns:xlink="http://www.w3.org/1999/xlink" x="0px" y="0px"
	 viewBox="0 0 15.5 15.5" style="enable-background:new 0 0 15.5 15.5;" xml:space="preserve">
<style type="text/css">
	.st0{opacity:0.5;stroke:#000000;stroke-width:0.5;}
</style>
<path class="st0" d="M8.4,11.4V8.3h3.7c1,0,1.8-0.8,1.8-1.8V4.1c1-0.3,1.6-1.4,1.3-2.5c-0.3-1-1.4-1.6-2.5-1.3s-1.6,1.4-1.3,2.5
	c0.2,0.6,0.7,1.1,1.3,1.3v2.5c0,0.3-0.3,0.6-0.6,0.6H8.4V4.1c1-0.3,1.6-1.4,1.3-2.5C9.4,0.6,8.3,0,7.2,0.3S5.6,1.8,5.9,2.8
	c0.2,0.6,0.7,1.1,1.3,1.3v3.1H3.4c-0.3,0-0.6-0.3-0.6-0.6V4.1c1-0.3,1.6-1.4,1.3-2.5C3.8,0.6,2.7,0,1.6,0.3S0,1.8,0.3,2.8
	C0.5,3.4,1,3.9,1.6,4.1v2.5c0,0.4,0.2,0.8,0.4,1.2C1.8,8.1,1.6,8.5,1.6,8.9v2.5c-1,0.3-1.6,1.4-1.3,2.5s1.4,1.6,2.5,1.3
	s1.6-1.4,1.3-2.5c-0.2-0.6-0.7-1.1-1.3-1.3V8.9c0-0.3,0.3-0.6,0.6-0.6h3.8v3.1c-1,0.3-1.6,1.4-1.3,2.5s1.4,1.6,2.5,1.3
	s1.6-1.4,1.3-2.5C9.5,12.1,9,11.6,8.4,11.4z M13.3,1.4c0.4,0,0.8,0.4,0.8,0.8S13.7,3,13.3,3c-0.4,0-0.8-0.4-0.8-0.8
	C12.5,1.8,12.9,1.4,13.3,1.4z M7.8,1.4c0.4,0,0.8,0.4,0.8,0.8S8.2,3,7.8,3C7.4,3,7,2.6,7,2.2l0,0C7,1.8,7.4,1.4,7.8,1.4z M2.2,1.4
	C2.6,1.4,3,1.8,3,2.2S2.6,3,2.2,3S1.4,2.6,1.4,2.2l0,0C1.4,1.8,1.8,1.4,2.2,1.4C2.2,1.4,2.2,1.4,2.2,1.4L2.2,1.4z M2.2,14.1
	c-0.4,0-0.8-0.4-0.8-0.8c0-0.4,0.4-0.8,0.8-0.8S3,12.9,3,13.3C3,13.7,2.6,14.1,2.2,14.1L2.2,14.1z M7.8,14.1c-0.4,0-0.8-0.4-0.8-0.8
	c0-0.4,0.4-0.8,0.8-0.8s0.8,0.4,0.8,0.8C8.6,13.7,8.2,14.1,7.8,14.1z"/>
</svg>
