<svg xmlns="http://www.w3.org/2000/svg" width="20" height="17" viewBox="0 0 20 17"><defs><style>.a{fill:#c8102e;}</style></defs><g transform="translate(0 9.092)"><g transform="translate(3.835)"><path class="a" d="M112.37,281.3a1.274,1.274,0,0,0-1.418.264l-2.083,2.033a2.354,2.354,0,0,1-2.326,2.142h-3.506a.593.593,0,0,1,0-1.186h3.481a1.193,1.193,0,0,0,1.193-1.15,1.179,1.179,0,0,0-1.168-1.222H103.37l-1.412-.717a4.323,4.323,0,0,0-4.213.164l-.745.454v5.66l3.727,1.135a.576.576,0,0,0,.168.025h5.886a3.659,3.659,0,0,0,2.91-1.436l3.195-4.127a1.345,1.345,0,0,0,.279-.82A1.309,1.309,0,0,0,112.37,281.3Z" transform="translate(-97 -281)"/></g><path class="a" d="M2.649,283.372v-.988A1.384,1.384,0,0,0,1.265,281H.593a.593.593,0,0,0-.593.593v1.779Z" transform="translate(0 -281)"/><path class="a" d="M0,371v3.756a.593.593,0,0,0,.593.593h.672a1.384,1.384,0,0,0,1.384-1.384V371Z" transform="translate(0 -367.441)"/></g><g transform="translate(2.412)"><path class="a" d="M248.71,92.6h-.992a.593.593,0,0,0-.545.36l-.242.565h-1.582l-.242-.565a.593.593,0,0,0-.545-.36h-.992v.926a.593.593,0,0,1-1.186,0V92.6H241v2.768h7.216a.593.593,0,0,0,.474-.237l.494-.656a.593.593,0,0,0,.119-.356v-.925A.593.593,0,0,0,248.71,92.6Z" transform="translate(-234.127 -90.161)"/><path class="a" d="M65.883,31.722l-2.672-.668A1.779,1.779,0,0,0,61,32.78v1.446h1.779a.593.593,0,0,1,0,1.186H61v1.446a1.781,1.781,0,0,0,1.775,1.78,1.8,1.8,0,0,0,.436-.054l2.672-.668a1.382,1.382,0,0,0,1.048-1.343v-3.51A1.382,1.382,0,0,0,65.883,31.722Z" transform="translate(-61 -31)"/></g></svg>