<svg xmlns="http://www.w3.org/2000/svg" width="80" height="64" viewBox="0 0 80 64"><defs><style>.a{fill:#fff;}</style></defs><g transform="translate(0 -53)"><g transform="translate(0 53)"><g transform="translate(0 0)"><path class="a" d="M76.94,76.779,75.2,74.87l-6.12-17.061A7.192,7.192,0,0,0,62.393,53H18.684A7.167,7.167,0,0,0,12,57.809L5.966,74.657l-2.513,2.4A10.305,10.305,0,0,0,0,84.788v24.857A7.27,7.27,0,0,0,7.145,117h4.513a7.27,7.27,0,0,0,7.145-7.355v-3.607H61.2v3.607A7.27,7.27,0,0,0,68.342,117h4.513A7.27,7.27,0,0,0,80,109.645V84.134A10.423,10.423,0,0,0,76.94,76.779ZM15.214,59.011a3.7,3.7,0,0,1,3.47-2.475H62.41a3.728,3.728,0,0,1,3.47,2.475l5.333,14.851H67.231A11.774,11.774,0,0,0,53.915,63.643a11.92,11.92,0,0,0-9.88,10.219H9.88Zm48.53,14.851H47.487a8.321,8.321,0,0,1,9.846-6.648A8.472,8.472,0,0,1,63.744,73.862ZM15.385,109.645a3.781,3.781,0,0,1-3.726,3.819H7.145a3.781,3.781,0,0,1-3.726-3.819v-4.632a6.767,6.767,0,0,0,3.726,1.025h8.239Zm61.2,0a3.781,3.781,0,0,1-3.726,3.819H68.342a3.792,3.792,0,0,1-3.726-3.819v-3.607h8.239a6.767,6.767,0,0,0,3.726-1.025v4.632ZM72.855,102.5H7.145a3.75,3.75,0,0,1-3.726-3.783V84.788a6.732,6.732,0,0,1,2.274-5.056l.068-.071L8.085,77.4H72.821l1.641,1.821c.017.035.068.053.085.088a6.773,6.773,0,0,1,2.017,4.827V98.719h.017A3.761,3.761,0,0,1,72.855,102.5Z" transform="translate(0 -53)"/></g></g><g transform="translate(8.309 84.47)"><g transform="translate(0 0)"><path class="a" d="M62.028,231H48.768A1.773,1.773,0,0,0,47,232.768v9.193a1.773,1.773,0,0,0,1.768,1.768h13.26a1.773,1.773,0,0,0,1.768-1.768v-9.193A1.773,1.773,0,0,0,62.028,231Zm-1.768,9.193H50.536v-5.657H60.26Z" transform="translate(-47 -231)"/></g></g><g transform="translate(54.895 84.47)"><g transform="translate(0 0)"><path class="a" d="M341.028,231h-13.26A1.773,1.773,0,0,0,326,232.768v9.193a1.773,1.773,0,0,0,1.768,1.768h13.26a1.773,1.773,0,0,0,1.768-1.768v-9.193A1.773,1.773,0,0,0,341.028,231Zm-1.768,9.193h-9.724v-5.657h9.724Z" transform="translate(-326 -231)"/></g></g><g transform="translate(29.693 91.895)"><path class="a" d="M194.546,273H177.468a1.768,1.768,0,1,0,0,3.536h17.078a1.768,1.768,0,1,0,0-3.536Z" transform="translate(-175.7 -273)"/></g><g transform="translate(29.693 86.414)"><path class="a" d="M194.546,242H177.468a1.768,1.768,0,1,0,0,3.536h17.078a1.768,1.768,0,1,0,0-3.536Z" transform="translate(-175.7 -242)"/></g></g></svg>