<?xml version="1.0" encoding="utf-8"?>
<!-- Generator: Adobe Illustrator 22.1.0, SVG Export Plug-In . SVG Version: 6.00 Build 0)  -->
<svg version="1.1" id="Layer_1" xmlns="http://www.w3.org/2000/svg" xmlns:xlink="http://www.w3.org/1999/xlink" x="0px" y="0px"
	 viewBox="0 0 13.3 9.8" style="enable-background:new 0 0 13.3 9.8;" xml:space="preserve">
<style type="text/css">
	.st0{fill:#C40F2D;}
</style>
<path class="st0" d="M13,0.3c-0.4-0.4-1.1-0.4-1.5,0l0,0L4.6,7.2L1.8,4.4C1.4,4,0.7,4,0.3,4.4c-0.4,0.4-0.4,1.1,0,1.5l3.5,3.5
	c0.2,0.2,0.5,0.3,0.8,0.3c0,0,0,0,0,0c0.3,0,0.5-0.1,0.7-0.2h0.1l0.1-0.1L13,1.8c0.2-0.2,0.3-0.5,0.3-0.8S13.2,0.5,13,0.3z"/>
</svg>
