<svg width="10" height="10" viewBox="0 0 10 10" fill="none" xmlns="http://www.w3.org/2000/svg">
<circle cx="5" cy="5" r="5" fill="#E21936"/>
<path d="M7.15667 3.42512L4.04878 5.83752L2.91178 4.7106V4.71048C2.84882 4.62718 2.75011 4.57325 2.64116 4.56266C2.53221 4.55206 2.42353 4.58577 2.34334 4.65522C2.26315 4.72456 2.21924 4.82278 2.22286 4.92462C2.22649 5.02634 2.27727 5.12167 2.36225 5.18595L3.74565 6.55941C3.81561 6.62585 3.91095 6.66377 4.01096 6.66509C4.09983 6.67244 4.18818 6.64716 4.25722 6.59467L7.64948 3.95331H7.64961C7.80507 3.8262 7.82191 3.60664 7.68744 3.46026C7.62474 3.38647 7.53147 3.34061 7.43055 3.33387C7.32951 3.32713 7.23028 3.36023 7.15683 3.42511L7.15667 3.42512Z" fill="white"/>
</svg>
