<svg width="15" height="10" viewBox="0 0 15 10" fill="none" xmlns="http://www.w3.org/2000/svg">
<path d="M12.8558 0.781491L4.77526 7.05374L1.81907 4.12372V4.12341C1.65538 3.90684 1.39872 3.76663 1.11546 3.73908C0.832192 3.71153 0.54961 3.79917 0.341119 3.97976C0.132629 4.16003 0.0184523 4.41541 0.0278853 4.68019C0.0373165 4.94465 0.169344 5.19252 0.390294 5.35965L3.98714 8.93063C4.16902 9.10338 4.41692 9.20197 4.67693 9.20542C4.90799 9.22451 5.1377 9.15878 5.31722 9.02233L14.1371 2.15478H14.1374C14.5416 1.82428 14.5854 1.25342 14.2358 0.872851C14.0728 0.681002 13.8303 0.561759 13.5679 0.544229C13.3052 0.526703 13.0472 0.612769 12.8562 0.781458L12.8558 0.781491Z" fill="#231F20"/>
</svg>
