<?xml version="1.0" encoding="utf-8"?>
<!-- Generator: Adobe Illustrator 22.1.0, SVG Export Plug-In . SVG Version: 6.00 Build 0)  -->
<svg version="1.1" id="Layer_1" xmlns="http://www.w3.org/2000/svg" xmlns:xlink="http://www.w3.org/1999/xlink" x="0px" y="0px"
	 viewBox="0 0 13.3 16.6" style="enable-background:new 0 0 13.3 16.6;" xml:space="preserve">
<style type="text/css">
	.st0{fill:#C8102E;}
</style>
<path class="st0" d="M5.4,9.1H4.6c-0.7,0-1.2-0.6-1.3-1.2c0,0,0,0,0,0l0,0c0-0.7,0.6-1.2,1.2-1.3c0,0,0,0,0,0h0.8V5.7
	C5.4,5,6,4.5,6.7,4.5c0,0,0,0,0,0l0,0c0.7,0,1.2,0.6,1.3,1.2c0,0,0,0,0,0v0.8h0.8c0.7,0,1.2,0.6,1.3,1.2c0,0,0,0,0,0l0,0
	c0,0.7-0.6,1.2-1.2,1.3c0,0,0,0,0,0H7.9v0.8c0,0.7-0.6,1.2-1.2,1.3c0,0,0,0,0,0l0,0c-0.7,0-1.2-0.6-1.3-1.2c0,0,0,0,0,0V9.1z
	 M6.1,0.1L1.1,2C0.4,2.2,0,2.9,0,3.5v3.9c0,4.2,2.8,8.1,6.7,9.1c3.8-1,6.7-4.9,6.7-9.1V3.5c0-0.7-0.4-1.3-1.1-1.6l-5-1.9
	C6.9,0,6.5,0,6.1,0.1L6.1,0.1z"/>
</svg>
