<svg xmlns="http://www.w3.org/2000/svg" width="42" height="33.745" viewBox="0 0 42 33.745">
  <path id="credit_card_FILL0_wght500_GRAD0_opsz40" d="M45.042,10.3V36.2a3.962,3.962,0,0,1-3.921,3.922H6.963A3.773,3.773,0,0,1,4.2,38.96,3.774,3.774,0,0,1,3.042,36.2V10.3A3.774,3.774,0,0,1,4.2,7.535a3.773,3.773,0,0,1,2.76-1.16H41.121a3.773,3.773,0,0,1,2.76,1.16A3.774,3.774,0,0,1,45.042,10.3ZM6.963,15.25H41.121V10.3H6.963Zm0,7.223V36.2H41.121V22.474Zm0,13.725v0Z" transform="translate(-3.042 -6.375)" fill="#c8102e"/>
</svg>
