<?xml version="1.0" encoding="utf-8"?>
<!-- Generator: Adobe Illustrator 22.1.0, SVG Export Plug-In . SVG Version: 6.00 Build 0)  -->
<svg version="1.1" id="Layer_1" xmlns="http://www.w3.org/2000/svg" xmlns:xlink="http://www.w3.org/1999/xlink" x="0px" y="0px"
	 viewBox="0 0 18 20" style="enable-background:new 0 0 18 20;" xml:space="preserve">
<style type="text/css">
	.st0{fill:#C8102E;}
</style>
<path class="st0" d="M13,11h-3c-0.6,0-1,0.4-1,1v3c0,0.6,0.4,1,1,1h3c0.6,0,1-0.4,1-1v-3C14,11.4,13.6,11,13,11z M13,1v1H5V1
	c0-0.6-0.4-1-1-1S3,0.4,3,1v1H2C0.9,2,0,2.9,0,4c0,0,0,0,0,0l0,14c0,1.1,0.9,2,2,2h14c1.1,0,2-0.9,2-2V4c0-1.1-0.9-2-2-2h-1V1
	c0-0.6-0.4-1-1-1S13,0.4,13,1z M16,18H2V8h14V18z"/>
</svg>
