<?xml version="1.0" encoding="utf-8"?>
<!-- Generator: Adobe Illustrator 22.1.0, SVG Export Plug-In . SVG Version: 6.00 Build 0)  -->
<svg version="1.1" id="Layer_1" xmlns="http://www.w3.org/2000/svg" xmlns:xlink="http://www.w3.org/1999/xlink" x="0px" y="0px"
	 viewBox="0 0 13.3 16.7" style="enable-background:new 0 0 13.3 16.7;" xml:space="preserve">
<style type="text/css">
	.st0{fill:#C8102E;}
</style>
<path class="st0" d="M9.2,0H1.7C0.7,0,0,0.7,0,1.7V15c0,0.9,0.7,1.7,1.7,1.7h10c0.9,0,1.7-0.7,1.7-1.7V4.2L9.2,0z M1.7,15V1.7h6.7V5
	h3.3v10H1.7z M10,6.7v4.2c0,1.8-1.5,3.3-3.3,3.3s-3.3-1.5-3.3-3.3V5.4c0-1.2,0.9-2.1,2.1-2.1c0.1,0,0.1,0,0.2,0
	c1.1,0.2,1.9,1.1,1.9,2.2v5.3H5.8V5.4C5.8,5.2,5.7,5,5.4,5S5,5.1,5,5.4c0,0,0,0,0,0v5.4c0,0.9,0.8,1.6,1.7,1.6
	c0.9,0,1.6-0.7,1.6-1.6V6.7H10z"/>
</svg>
