<svg xmlns="http://www.w3.org/2000/svg" width="105.441" height="29.141" viewBox="0 0 105.441 29.141"><defs><style>.a{fill:#e31837;}</style></defs><g transform="translate(-1181.999 -4927)"><path class="a" d="M1283.94,4956.14a3.4,3.4,0,1,1,3.5-3.4A3.455,3.455,0,0,1,1283.94,4956.14Zm-7.865-.377h-3.931a.827.827,0,0,1-.733-.824V4935.1c0-.01.212-.961,1-.961h3.531c.72.067.864.952.866.961v2.876a4.654,4.654,0,0,1,3-3.083,15.885,15.885,0,0,1,1.8-.137,9.166,9.166,0,0,1,3.065.48.628.628,0,0,1,.4.892l-1.332,3.5a1.17,1.17,0,0,1-1.082.763.762.762,0,0,1-.116-.008,3.73,3.73,0,0,0-.934-.068,4.877,4.877,0,0,0-4.8,4.942v9.611c0,.008-.008.826-.733.892h0Zm-8.462,0a5.9,5.9,0,0,1-4.929-2.265,9.774,9.774,0,0,1-6.33,2.265,9.972,9.972,0,0,1-7.2-3.089,10.665,10.665,0,0,1,0-14.827,9.972,9.972,0,0,1,7.2-3.089h.6a6.335,6.335,0,0,1,4.2,2.265V4935.1c0-.01.01-.961.867-.961h3.73c.791,0,.8.952.8.961v14c.067,1.1.6,1.1,1.066,1.1h.333c.005,0,.534.014.534,1.236v3.227C1268.48,4955.75,1267.622,4955.763,1267.613,4955.763Zm-11.259-15.445a4.945,4.945,0,1,0,4.8,4.942A4.877,4.877,0,0,0,1256.354,4940.318Zm-13.791,15.445h-4a.857.857,0,0,1-.733-.753v-27.117c0-.009.009-.893.8-.893h3.731a.844.844,0,0,1,.933.893v27.117a.842.842,0,0,1-.732.754Zm-9.061,0h-3.931a.857.857,0,0,1-.732-.753v-27.117c0-.009.009-.893.8-.893h3.732a.813.813,0,0,1,.8.893h.066v27.117a.849.849,0,0,1-.732.754Zm-30.049,0a5.9,5.9,0,0,1-4.929-2.265,9.774,9.774,0,0,1-6.33,2.265,9.973,9.973,0,0,1-7.2-3.089,10.665,10.665,0,0,1,0-14.827,9.973,9.973,0,0,1,7.2-3.089,10.145,10.145,0,0,1,4.8,1.235v-8.1c0-.009.009-.893.8-.893h3.731a.813.813,0,0,1,.8.893V4949.1c.066,1.1.6,1.1,1.066,1.1h.4c.005,0,.532.014.532,1.236v3.227C1204.318,4955.75,1203.461,4955.763,1203.453,4955.763Zm-11.259-15.445a4.945,4.945,0,1,0,4.8,4.942A4.877,4.877,0,0,0,1192.194,4940.318Zm23.516,15.441a10.5,10.5,0,1,1,10.191-10.5A10.359,10.359,0,0,1,1215.709,4955.759Zm0-15.441a4.945,4.945,0,1,0,4.8,4.942A4.876,4.876,0,0,0,1215.712,4940.318Z"/></g></svg>