<?xml version="1.0" encoding="utf-8"?>
<!-- Generator: Adobe Illustrator 22.1.0, SVG Export Plug-In . SVG Version: 6.00 Build 0)  -->
<svg version="1.1" id="Layer_1" xmlns="http://www.w3.org/2000/svg" xmlns:xlink="http://www.w3.org/1999/xlink" x="0px" y="0px"
	 viewBox="0 0 15 15" style="enable-background:new 0 0 15 15;" xml:space="preserve">
<style type="text/css">
	.st0{opacity:0.5;}
</style>
<g transform="translate(5.001 5.001)" class="st0">
	<g transform="translate(2.637 10.608)">
		<path d="M-5-5c0,0.5,0.4,0.9,0.9,0.9c0.5,0,0.9-0.4,0.9-0.9l0,0H-5z"/>
	</g>
	<g transform="translate(0 0)">
		<path d="M9.6,1.1L3.9-4.6C3.7-4.9,3.4-5,3-5h-6.7C-4.4-5-5-4.4-5-3.7V8.7C-5,9.4-4.4,10-3.7,10h7.1c0.2,0,0.3-0.1,0.4-0.2
			c1-2,3.1-3.3,5.3-3.3h0.5C9.8,6.5,10,6.3,10,6c0,0,0,0,0,0V2C10,1.6,9.9,1.3,9.6,1.1z M0.3,5.6c0,1-0.8,1.8-1.8,1.8
			s-1.8-0.8-1.8-1.8l0,0V5.2c0-0.2,0.2-0.4,0.4-0.4c0,0,0,0,0,0h2.6c0.2,0,0.4,0.2,0.4,0.4c0,0,0,0,0,0V5.6z M7.8,2.9H-2.8
			c-0.2,0-0.4-0.2-0.4-0.4c0,0,0,0,0,0v-5.3C-3.2-3-3-3.2-2.8-3.2c0,0,0,0,0,0h5.5c0.1,0,0.2,0,0.3,0.1L8.1,2
			C8.4,2.3,8.3,2.9,7.8,2.9L7.8,2.9z"/>
	</g>
	<g transform="translate(2.637 2.637)">
		<path d="M-0.2-5H-5v4.4h9.3L-0.2-5z"/>
	</g>
</g>
</svg>
