<?xml version="1.0" encoding="utf-8"?>
<!-- Generator: Adobe Illustrator 22.1.0, SVG Export Plug-In . SVG Version: 6.00 Build 0)  -->
<svg version="1.1" id="Layer_1" xmlns="http://www.w3.org/2000/svg" xmlns:xlink="http://www.w3.org/1999/xlink" x="0px" y="0px"
	 viewBox="0 0 16.7 16.7" style="enable-background:new 0 0 16.7 16.7;" xml:space="preserve">
<style type="text/css">
	.st0{fill:#C8102E;}
</style>
<path class="st0" d="M8.3,0C3.7,0,0,3.7,0,8.3s3.7,8.3,8.3,8.3s8.3-3.7,8.3-8.3C16.7,3.7,12.9,0,8.3,0z M8.3,2.5
	c1.4,0,2.5,1.1,2.5,2.5S9.7,7.5,8.3,7.5S5.8,6.4,5.8,5S7,2.5,8.3,2.5z M8.3,14.3c-2,0-3.9-1-5-2.7c0-1.7,3.3-2.6,5-2.6s5,0.9,5,2.6
	C12.2,13.3,10.3,14.3,8.3,14.3z"/>
</svg>
