<svg xmlns="http://www.w3.org/2000/svg" width="20" height="16" viewBox="0 0 20 16"><defs><style>.a{opacity:0.5;}.b{fill:#63666a;}</style></defs><g class="a"><g transform="translate(12.513 3.183)"><path class="b" d="M339.392,149.829l7.487,4.733V144.9Z" transform="translate(-339.392 -144.896)"/></g><g transform="translate(0 3.183)"><path class="b" d="M0,144.9v9.666l7.487-4.733Z" transform="translate(0 -144.896)"/></g><g transform="translate(0.042 0)"><path class="b" d="M19.665,80H2.172A1.286,1.286,0,0,0,.96,81.181l9.958,7.288,9.958-7.288A1.286,1.286,0,0,0,19.665,80Z" transform="translate(-0.96 -80)"/></g><g transform="translate(0.044 9.317)"><path class="b" d="M13.091,277.921l-1.768,1.294a.575.575,0,0,1-.687,0L8.868,277.92l-7.844,5.512A1.283,1.283,0,0,0,2.233,284.6H19.726a1.283,1.283,0,0,0,1.209-1.171Z" transform="translate(-1.024 -277.92)"/></g></g></svg>