<svg xmlns="http://www.w3.org/2000/svg" width="24" height="17" viewBox="0 0 24 17"><defs><style>.a{fill:#c8102e;}</style></defs><g transform="translate(15.664 3.134)"><path class="a" d="M339.392,150.389l8.336,5.27V144.9Z" transform="translate(-339.392 -144.896)"/></g><g transform="translate(0 3.134)"><path class="a" d="M0,144.9v10.763l8.336-5.27Z" transform="translate(0 -144.896)"/></g><g transform="translate(0.046 0)"><g transform="translate(0 0)"><path class="a" d="M23.412,80h-21A1.5,1.5,0,0,0,.96,81.315L12.914,89.43l11.954-8.115A1.5,1.5,0,0,0,23.412,80Z" transform="translate(-0.96 -80)"/></g></g><g transform="translate(0.049 9.559)"><path class="a" d="M15.509,277.922l-2.122,1.44a.734.734,0,0,1-.825,0L10.44,277.92l-9.416,6.137a1.494,1.494,0,0,0,1.452,1.3h21a1.494,1.494,0,0,0,1.452-1.3Z" transform="translate(-1.024 -277.92)"/></g></svg>