<svg xmlns="http://www.w3.org/2000/svg" width="22.207" height="15.267" viewBox="0 0 22.207 15.267"><defs><style>.a{fill:#fff;}</style></defs><g transform="translate(14.721 2.815)"><path class="a" d="M339.392,149.829l7.487,4.733V144.9Z" transform="translate(-339.392 -144.896)"/></g><g transform="translate(0 2.815)"><path class="a" d="M0,144.9v9.666l7.487-4.733Z" transform="translate(0 -144.896)"/></g><g transform="translate(0.042 0)"><g transform="translate(0 0)"><path class="a" d="M21.738,80H2.306A1.371,1.371,0,0,0,.96,81.181l11.062,7.288,11.062-7.288A1.371,1.371,0,0,0,21.738,80Z" transform="translate(-0.96 -80)"/></g></g><g transform="translate(0.044 8.584)"><path class="a" d="M14.429,277.921l-1.964,1.294a.7.7,0,0,1-.763,0L9.738,277.92l-8.714,5.512A1.369,1.369,0,0,0,2.368,284.6H21.8a1.369,1.369,0,0,0,1.344-1.171Z" transform="translate(-1.024 -277.92)"/></g></svg>