<svg xmlns="http://www.w3.org/2000/svg" width="20" height="15" viewBox="0 0 20 15"><defs><style>.a{fill:#c8102e;}</style></defs><g transform="translate(0 0)"><g transform="translate(12.518 2.683)"><path class="a" d="M339.392,149.826l7.482,4.73V144.9Z" transform="translate(-339.392 -144.896)"/></g><g transform="translate(0 2.683)"><path class="a" d="M0,144.9v9.66l7.482-4.73Z" transform="translate(0 -144.896)"/></g><g transform="translate(0.042 0)"><g transform="translate(0 0)"><path class="a" d="M19.665,80H2.172A1.286,1.286,0,0,0,.96,81.18l9.958,7.284,9.958-7.284A1.286,1.286,0,0,0,19.665,80Z" transform="translate(-0.96 -80)"/></g></g><g transform="translate(0.044 8.321)"><path class="a" d="M13.091,277.921l-1.768,1.293a.576.576,0,0,1-.687,0L8.868,277.92l-7.844,5.508A1.283,1.283,0,0,0,2.233,284.6H19.726a1.283,1.283,0,0,0,1.209-1.171Z" transform="translate(-1.024 -277.92)"/></g></g></svg>