<svg xmlns="http://www.w3.org/2000/svg" width="20" height="20.017" viewBox="0 0 20 20.017"><defs><style>.a,.b,.e{fill:none;}.b{stroke:#827f7f;}.c,.d{stroke:none;}.d{fill:#827f7f;}</style></defs><g transform="translate(-208 -1144.012)"><g class="a" transform="translate(210.611 1146.251)"><path class="c" d="M2.478,0h9.914a2.5,2.5,0,0,1,2.478,2.528V12.639a2.5,2.5,0,0,1-2.478,2.528H2.478A2.5,2.5,0,0,1,0,12.639V2.528A2.5,2.5,0,0,1,2.478,0Z"/><path class="d" d="M 2.47846508026123 1.000003814697266 C 1.663234710693359 1.000003814697266 0.999995231628418 1.68535327911377 0.999995231628418 2.527773857116699 L 0.999995231628418 12.63887405395508 C 0.999995231628418 13.48129367828369 1.663234710693359 14.1666431427002 2.47846508026123 14.1666431427002 L 12.39234447479248 14.1666431427002 C 13.20757484436035 14.1666431427002 13.87080478668213 13.48129367828369 13.87080478668213 12.63887405395508 L 13.87080478668213 2.527773857116699 C 13.87080478668213 1.68535327911377 13.20757484436035 1.000003814697266 12.39234447479248 1.000003814697266 L 2.47846508026123 1.000003814697266 M 2.47846508026123 3.814697265625e-06 L 12.39234447479248 3.814697265625e-06 C 13.76116466522217 3.814697265625e-06 14.87080478668213 1.131723403930664 14.87080478668213 2.527773857116699 L 14.87080478668213 12.63887405395508 C 14.87080478668213 14.0349235534668 13.76116466522217 15.1666431427002 12.39234447479248 15.1666431427002 L 2.47846508026123 15.1666431427002 C 1.109644889831543 15.1666431427002 -4.76837158203125e-06 14.0349235534668 -4.76837158203125e-06 12.63887405395508 L -4.76837158203125e-06 2.527773857116699 C -4.76837158203125e-06 1.131723403930664 1.109644889831543 3.814697265625e-06 2.47846508026123 3.814697265625e-06 Z"/></g><g class="b" transform="translate(213.733 1150.297)"><rect class="c" width="8.75" height="7" rx="2"/><rect class="e" x="0.5" y="0.5" width="7.75" height="6" rx="1.5"/></g><g transform="translate(208 1151.602)"><g transform="translate(0 0)"><path class="b" d="M4878,1163h2.891" transform="translate(-4878 -1163)"/><path class="b" d="M4878,1163h2.891" transform="translate(-4878 -1158.524)"/></g><g transform="translate(17.109 0)"><path class="b" d="M4878,1163h2.891" transform="translate(-4878 -1163)"/><path class="b" d="M4878,1163h2.891" transform="translate(-4878 -1158.524)"/></g></g><g transform="translate(215.805 1144.021)"><g transform="matrix(0.017, -1, 1, 0.017, 0, 2.89)"><path class="b" d="M0,0H2.891" transform="translate(0)"/><path class="b" d="M0,0H2.891" transform="translate(0 4.476)"/></g><g transform="matrix(0.017, -1, 1, 0.017, 0, 19.922)"><path class="b" d="M0,0H2.891" transform="translate(0)"/><path class="b" d="M0,0H2.891" transform="translate(0 4.476)"/></g></g></g></svg>