<svg xmlns="http://www.w3.org/2000/svg" width="51" height="61" viewBox="0 0 51 61"><defs><style>.a{fill:#fff;stroke:#fff;}</style></defs><g transform="translate(-39.597 0.5)"><g transform="translate(40.097)"><path class="a" d="M87.24,7.952h-5V2.892A2.883,2.883,0,0,0,79.383,0H42.954A2.883,2.883,0,0,0,40.1,2.892V49.157a2.883,2.883,0,0,0,2.857,2.892h5v5.06A2.883,2.883,0,0,0,50.811,60H75.1a8.282,8.282,0,0,0,4.937-1.981l7.981-7.6A7.723,7.723,0,0,0,90.1,45.542v-34.7A2.883,2.883,0,0,0,87.24,7.952ZM47.954,10.843V49.879h-5a.728.728,0,0,1-.714-.723V2.892a.728.728,0,0,1,.714-.723H79.383a.729.729,0,0,1,.714.723v5.06H50.811A2.883,2.883,0,0,0,47.954,10.843ZM86.546,48.836l-7.981,7.6a3.794,3.794,0,0,1-.611.453V50.241a1.809,1.809,0,0,1,.524-1.276,1.77,1.77,0,0,1,1.261-.531h7.146A3.026,3.026,0,0,1,86.546,48.836Zm1.406-3.294a3.41,3.41,0,0,1-.1.723H79.739a3.961,3.961,0,0,0-3.929,3.976v7.5a3.693,3.693,0,0,1-.714.087H50.811a.728.728,0,0,1-.714-.723V10.843a.728.728,0,0,1,.714-.723H87.24a.728.728,0,0,1,.714.723Z" transform="translate(-40.097)"/></g><g transform="translate(57.668 18.083)"><path class="a" d="M212.916,154.216H192.3a1.066,1.066,0,1,0,0,2.133h20.615a1.066,1.066,0,0,0,0-2.133Z" transform="translate(-191.235 -154.216)"/></g><g transform="translate(57.668 32.55)"><path class="a" d="M212.916,277.59H192.3a1.066,1.066,0,1,0,0,2.133h20.615a1.066,1.066,0,0,0,0-2.133Z" transform="translate(-191.235 -277.59)"/></g><g transform="translate(57.629 39.784)"><path class="a" d="M203.676,339.277H192.3a1.066,1.066,0,1,0,0,2.133h11.374a1.066,1.066,0,0,0,0-2.133Z" transform="translate(-191.236 -339.277)"/></g><g transform="translate(57.668 25.317)"><path class="a" d="M212.916,215.9H192.3a1.066,1.066,0,0,0,0,2.133h20.615a1.066,1.066,0,0,0,0-2.133Z" transform="translate(-191.235 -215.903)"/></g></g></svg>