<svg width="16" height="16" viewBox="0 0 16 16" fill="none" xmlns="http://www.w3.org/2000/svg">
<path d="M15.4923 0.166837C15.4256 0.0667814 15.3088 0 15.1921 0H0.881556C0.74811 0 0.63142 0.0666651 0.581395 0.183474C0.514613 0.28353 0.514614 0.433611 0.597916 0.567061L6.05193 7.85576V14.6608C6.05193 14.8109 6.13535 14.9277 6.25204 14.9777C6.31871 15.0111 6.38549 15.0111 6.40213 15.0111C6.50218 15.0111 6.5856 14.9777 6.65227 14.911L9.23753 12.3425C9.3042 12.2759 9.33759 12.1925 9.33759 12.0924L9.3377 7.95602L15.4756 0.550569C15.5589 0.43376 15.5589 0.300316 15.4922 0.166983L15.4923 0.166837ZM8.70393 7.63901C8.68729 7.68904 8.6539 7.73906 8.6539 7.82248V11.9255L6.76927 13.7935V7.73906C6.76927 7.65564 6.73587 7.60561 6.7026 7.5222L1.59884 0.683825H14.4416L8.70393 7.63901Z" fill="#231F20"/>
</svg>
