<svg xmlns="http://www.w3.org/2000/svg" width="18" height="18.47" viewBox="0 0 18 18.47"><defs><style>.a{fill:#c8102e;}</style></defs><path class="a" d="M11.545,9.968l-5.16-5.16A1.151,1.151,0,0,0,4.757,6.436l5.149,5.149ZM17.04,4.981l1.374,1.374L4.745,20.023a1.151,1.151,0,0,0,1.628,1.628L20.053,7.994l1.374,1.374a.577.577,0,0,0,.981-.416V4.577A.572.572,0,0,0,21.83,4H17.455A.577.577,0,0,0,17.04,4.981Zm-.6,9.882-1.628,1.628L18.425,20.1,17.04,21.489a.577.577,0,0,0,.416.981H21.83a.572.572,0,0,0,.577-.577V17.518a.571.571,0,0,0-.981-.4l-1.374,1.374-3.613-3.625Z" transform="translate(-4.408 -4)"/></svg>