<?xml version="1.0" encoding="utf-8"?>
<!-- Generator: Adobe Illustrator 22.1.0, SVG Export Plug-In . SVG Version: 6.00 Build 0)  -->
<svg version="1.1" id="Layer_1" xmlns="http://www.w3.org/2000/svg" xmlns:xlink="http://www.w3.org/1999/xlink" x="0px" y="0px"
	 viewBox="0 0 24.7 24.4" style="enable-background:new 0 0 24.7 24.4;" xml:space="preserve">
<style type="text/css">
	.st0{fill:#C8102E;}
</style>
<g transform="translate(2.537 2.782)">
	<path class="st0" d="M11.2,20.4L11.2,20.4c0,0.7,0.6,1.3,1.2,1.3c0.1,0,0.2,0,0.3,0c1.4-0.3,2.7-0.9,3.9-1.6
		c0.6-0.4,0.7-1.2,0.4-1.7c0-0.1-0.1-0.1-0.2-0.2l0,0c-0.4-0.4-1-0.5-1.5-0.2c-1,0.6-2,1.1-3.2,1.3C11.6,19.3,11.2,19.8,11.2,20.4z"
		/>
	<path class="st0" d="M0,9.4c0-4.7,3.2-8.7,7.7-9.7c0.6-0.1,0.9-0.6,0.9-1.2l0,0c0-0.7-0.6-1.3-1.2-1.3c-0.1,0-0.2,0-0.3,0
		c-6.7,1.6-10.9,8.3-9.3,15c1.1,4.6,4.7,8.3,9.3,9.3c0.7,0.2,1.3-0.3,1.5-0.9c0-0.1,0-0.2,0-0.3l0,0c0-0.6-0.4-1.1-0.9-1.2
		C3.2,18.1,0,14.1,0,9.4z"/>
	<path class="st0" d="M20.9,8.2L20.9,8.2c0.7,0,1.3-0.6,1.3-1.2c0-0.1,0-0.2,0-0.3c-0.3-1.4-0.9-2.7-1.6-3.9
		c-0.4-0.6-1.1-0.8-1.7-0.4c-0.1,0.1-0.2,0.1-0.2,0.2l0,0c-0.4,0.4-0.5,1-0.2,1.5c0.6,1,1.1,2,1.3,3.2C19.8,7.8,20.3,8.2,20.9,8.2z"
		/>
	<path class="st0" d="M16.6-1.1c-1.2-0.8-2.5-1.3-3.9-1.6c-0.7-0.1-1.3,0.3-1.5,1c0,0.1,0,0.2,0,0.3l0,0c0,0.6,0.4,1.1,0.9,1.2
		c1.1,0.3,2.2,0.7,3.2,1.3c0.5,0.3,1.1,0.2,1.5-0.2l0,0c0.5-0.5,0.5-1.2,0-1.7C16.8-1,16.7-1.1,16.6-1.1z"/>
	<path class="st0" d="M18.6,16.3L18.6,16.3c0.5,0.5,1.3,0.5,1.8,0c0.1-0.1,0.1-0.1,0.2-0.2c0.8-1.2,1.3-2.5,1.6-3.9
		c0.1-0.7-0.3-1.3-1-1.5c-0.1,0-0.2,0-0.3,0l0,0c-0.6,0-1.1,0.4-1.2,0.9c-0.3,1.1-0.7,2.2-1.3,3.2C18.1,15.3,18.2,15.9,18.6,16.3z"
		/>
	<path class="st0" d="M14.9,8.3c0-2.8-2.2-5-5-5s-5,2.2-5,5c0,1.9,1.4,4.1,4.1,6.6c0.5,0.4,1.2,0.4,1.7,0
		C13.6,12.4,14.9,10.2,14.9,8.3z M9.9,9.4c-0.7,0-1.3-0.6-1.3-1.3s0.6-1.3,1.3-1.3c0.7,0,1.3,0.6,1.3,1.3l0,0
		C11.3,8.8,10.7,9.4,9.9,9.4z"/>
</g>
</svg>
