<svg xmlns="http://www.w3.org/2000/svg" width="17.667" height="27.383" viewBox="0 0 17.667 27.383"><defs><style>.a{fill:#fff;}</style></defs><g transform="translate(-625 -2476)"><path class="a" d="M-6945.167-3669.618h0c-.022-.034-2.215-3.431-4.416-7.444-2.015-3.674-4.416-8.583-4.416-11.1a8.843,8.843,0,0,1,8.833-8.834,8.844,8.844,0,0,1,8.834,8.834c0,2.52-2.4,7.429-4.417,11.1-2.2,4.008-4.395,7.41-4.417,7.444Zm.141-20.709a3.455,3.455,0,0,0-3.452,3.45,3.456,3.456,0,0,0,3.452,3.452,3.456,3.456,0,0,0,3.452-3.452A3.455,3.455,0,0,0-6945.026-3690.327Z" transform="translate(7579 6173)"/></g></svg>