<svg xmlns="http://www.w3.org/2000/svg" width="20" height="20" viewBox="0 0 20 20"><defs><style>.a{fill:#c8102e;}</style></defs><path class="a" d="M10.949,23.58c-4.824-.015-8.774,4.113-9.086,9.335H.6a.662.662,0,0,0-.519.989l1.407,2.684,1.407,2.684a.573.573,0,0,0,1.037,0l1.407-2.684L6.745,33.9a.662.662,0,0,0-.519-.989h-1.5a6.483,6.483,0,0,1,6.3-6.187c3.312.059,6.021,3,6.116,6.652.1,3.869-2.728,7.052-6.219,7.052a5.7,5.7,0,0,1-2.517-.586,1.365,1.365,0,0,0-1.817.652,1.648,1.648,0,0,0,.651,2.224,8.343,8.343,0,0,0,3.683.857c5.008,0,9.068-4.466,9.079-9.979C20.011,28.063,15.976,23.6,10.949,23.58Z" transform="translate(0 -23.58)"/><path class="a" d="M238.876,187.54h-.649a1.669,1.669,0,0,0-1.012-1.012v-.674a.554.554,0,1,0-1.108,0v.674a1.661,1.661,0,0,0,.554,3.227h.01a1.664,1.664,0,0,0,1.556-1.107h.649a.554.554,0,0,0,0-1.108Zm-2.205,1.107h-.01a.554.554,0,0,1,0-1.108h.01a.553.553,0,0,1,0,1.107Z" transform="translate(-225.666 -177.996)"/></svg>