<svg xmlns="http://www.w3.org/2000/svg" width="34.302" height="18.467" viewBox="0 0 34.302 18.467"><defs><style>.a{stroke:#000;stroke-width:0.3px;}</style></defs><path class="a" d="M-2906.823-533.309h-10.869v.016h-.812a3.09,3.09,0,0,1-3.026,2.46,3.09,3.09,0,0,1-3.029-2.476h-.866a2.575,2.575,0,0,1-2.575-2.575v-10.54a2.576,2.576,0,0,1,2.575-2.576h22.8a2.533,2.533,0,0,1,1.674.659,13.393,13.393,0,0,1,1.742,1.9.516.516,0,0,1,.2.268,15.865,15.865,0,0,1,1.257,2.035h2.38a.516.516,0,0,1,.474.3l.86,1.932a.513.513,0,0,1,.014.4.515.515,0,0,1-.272.289.511.511,0,0,1-.211.062.515.515,0,0,1-.469-.3l-.727-1.628h-1.545A21.435,21.435,0,0,1-2895.51-536a2.527,2.527,0,0,1-.677,1.893,2.529,2.529,0,0,1-1.842.8h-1.926v.016h-.812a3.09,3.09,0,0,1-3.026,2.46A3.09,3.09,0,0,1-2906.823-533.309Zm.974-.51a2.061,2.061,0,0,0,2.055,2.056l.005.005a2.06,2.06,0,0,0,2.06-2.061,2.06,2.06,0,0,0-2.06-2.06A2.06,2.06,0,0,0-2905.849-533.819Zm-17.736,0a2.061,2.061,0,0,0,2.055,2.056l0,.005a2.061,2.061,0,0,0,2.061-2.061,2.061,2.061,0,0,0-2.061-2.06A2.06,2.06,0,0,0-2923.585-533.819Zm-3.385-2.055a1.547,1.547,0,0,0,.449,1.1,1.546,1.546,0,0,0,1.1.457l.005-.016h.861a3.091,3.091,0,0,1,3.029-2.476,3.091,3.091,0,0,1,3.029,2.476h11.678a3.091,3.091,0,0,1,3.029-2.476,3.091,3.091,0,0,1,3.029,2.476h2.736a1.478,1.478,0,0,0,1.092-.479,1.463,1.463,0,0,0,.4-1.113c-.036-.515-.093-1.03-.159-1.51-5.981-.118-7.269-2.668-7.547-3.781h-22.723Zm20.229-6.352h2.494a1.032,1.032,0,0,1,1,.783c.169.68,1.138,2.833,6.377,2.988a19.265,19.265,0,0,0-1.623-4.92.174.174,0,0,1-.036-.067,14.949,14.949,0,0,0-1.252-2.061h-6.959Zm-5.11-.005h4.08l.005-3.276h-4.085Zm-5.126,0h4.091l0-3.276h-4.1Zm-5.1,0h4.069l.005-3.276h-4.074Zm-4.894,0h3.864l-.016-3.276h-3.848Zm0-4.3h26.375a12.137,12.137,0,0,0-1.02-1.04l.005.005a1.546,1.546,0,0,0-1.03-.4h-22.789A1.546,1.546,0,0,0-2926.97-546.533Z" transform="translate(2928.15 549.15)"/></svg>