<svg xmlns="http://www.w3.org/2000/svg" width="34" height="13.901" viewBox="0 0 34 13.901"><path d="M541.438,125.706h8.78a.732.732,0,0,0,0-1.463h-8.78a.732.732,0,1,0,0,1.463Zm10.346-8.048-3.786-2.1a.725.725,0,0,0-.355-.092h-1.816v2.195Zm2.785,1.463H538.2l-2.926-.732c-.067.025-.134.047-.2.065l-4.066,1.084a.733.733,0,0,0-.429.315h.563a.732.732,0,1,1,0,1.463h-.677v2.195a.732.732,0,0,0,.732.732h.732a.732.732,0,0,1,0,1.463h-.732A2.195,2.195,0,0,1,529,123.511v-3.265a2.195,2.195,0,0,1,1.629-2.121l4.066-1.084a.722.722,0,0,0,.3-.16l2.617-2.326a2.2,2.2,0,0,1,1.458-.555h8.576a2.193,2.193,0,0,1,1.066.277l6.042,3.356a.706.706,0,0,0,.225.08l6.221,1.131c.071.013.141.029.211.049a2.2,2.2,0,0,1,1.507,2.714l-.716,2.507a2.195,2.195,0,0,1-2.111,1.592h-.359a.732.732,0,0,1,0-1.463h.359a.732.732,0,0,0,.7-.53l.685-2.4h-1.238a.732.732,0,0,1-.514-1.253l-5.011-.911C554.665,119.144,554.617,119.133,554.569,119.121Zm-17.8-1.865,1.608.4h5.984v-2.195h-5.3a.731.731,0,0,0-.486.185Zm18.2,10.645a3.292,3.292,0,1,1,3.292-3.292A3.293,3.293,0,0,1,554.973,127.9Zm0-1.463a1.829,1.829,0,1,0-1.829-1.829A1.829,1.829,0,0,0,554.973,126.438ZM536.682,127.9a3.292,3.292,0,1,1,3.292-3.292A3.293,3.293,0,0,1,536.682,127.9Zm0-1.463a1.829,1.829,0,1,0-1.829-1.829A1.829,1.829,0,0,0,536.682,126.438Z" transform="translate(-529 -114)"/></svg>