<svg xmlns="http://www.w3.org/2000/svg" width="34.242" height="14.774" viewBox="0 0 34.242 14.774"><defs><style>.a{stroke:#000;stroke-width:0.2px;}</style></defs><g transform="translate(0.135 0.101)"><path class="a" d="M14.316,291.187a9.492,9.492,0,0,1,6.4,2.139,12.143,12.143,0,0,0,7.428,2.746,6.721,6.721,0,0,1,6.344,4.973,1.237,1.237,0,0,1-.289,1.167l-.669.714a1.237,1.237,0,0,1-.9.394h-.346a3.339,3.339,0,0,1-6.427,0H9.5a3.339,3.339,0,0,1-6.425,0H2.111a1.237,1.237,0,0,1-1.119-.709,4.841,4.841,0,0,1,3.9-6.882,4.25,4.25,0,0,0,2.742-1.392,9.492,9.492,0,0,1,6.686-3.149Zm.27,1.207a8.248,8.248,0,0,0-.847.055,11.152,11.152,0,0,1,.882,2.967,8.056,8.056,0,0,0,2.644-.28,11.791,11.791,0,0,1,3.244-.431q-.289-.212-.567-.439a8.277,8.277,0,0,0-5.357-1.871Zm-2.078.294a8.28,8.28,0,0,0-3.65,2.116A11.5,11.5,0,0,1,13,295.15q.179.048.36.088a9.937,9.937,0,0,0-.851-2.55Zm8.222,3.233a10.572,10.572,0,0,0-3.138.382,9.269,9.269,0,0,1-4.909.018,10.287,10.287,0,0,0-6.3.3,5.473,5.473,0,0,1-1.373.32h0a3.626,3.626,0,0,0-2.919,5.156h0a.02.02,0,0,0,0,0l0,0a.023.023,0,0,0,0,0h0l0,0h0l0,0h.859a3.339,3.339,0,0,1,6.65,0H25.743a3.339,3.339,0,0,1,6.65,0h.242l0,0h0l0,0,0,0,.669-.716s0,0,0,0l0,0s0,0,0,0l0,0a.022.022,0,0,0,0,0,.024.024,0,0,0,0,0s0,0,0,0,0,0,0,0a.022.022,0,0,0,0,0s0,0,0,0a5.506,5.506,0,0,0-5.2-4.074,13.351,13.351,0,0,1-4.165-.761,10.574,10.574,0,0,0-3.1-.6l-.121,0ZM6.345,300.282a2.127,2.127,0,1,0,2.066,2.127,2.125,2.125,0,0,0-2.066-2.127Zm22.782,0a2.124,2.124,0,1,0,2.063,2.123,2.126,2.126,0,0,0-2.063-2.123Z" transform="translate(-0.529 -291.179)"/></g></svg>