<svg xmlns="http://www.w3.org/2000/svg" width="34" height="15.236" viewBox="0 0 34 15.236"><g transform="translate(0.013 -13.49)"><g transform="translate(-0.013 13.49)"><path d="M35.974,29.057a.708.708,0,1,0,.417.789A.708.708,0,0,0,35.974,29.057Z" transform="translate(-10.202 -18.017)"/><path d="M12.212,29.205a.708.708,0,1,0,.064.932A.708.708,0,0,0,12.212,29.205Z" transform="translate(-3.203 -18.016)"/><path d="M24.124,23H22.708a.708.708,0,1,0,0,1.416h1.416a.708.708,0,0,0,0-1.416Z" transform="translate(-6.412 -16.265)"/><path d="M31.027,18.426l-5.934-.991c-2.443-2.089-3.505-3.236-5.8-3.916a.708.708,0,1,0-.4,1.36,9.97,9.97,0,0,1,3.973,2.514H15.575V15.975a.708.708,0,1,0-1.416,0v1.416c-.319,0-.078.375-1.218-2.478a1.416,1.416,0,0,0-1.763-.814,29.22,29.22,0,0,0-9.206,4.362C-.266,20.047,0,19.856,0,23.057a2.833,2.833,0,0,0,2.833,2.833h2.2a3.541,3.541,0,0,0,6.94,0H22.019a3.541,3.541,0,0,0,6.94,0h2.2a2.833,2.833,0,0,0,2.833-2.833v-1.14a3.541,3.541,0,0,0-2.96-3.491Zm.708,1.82a2.124,2.124,0,0,1,.836,1.4h-.708a.71.71,0,1,1-.106-1.416Zm-20.111-4.8.779,1.947a7.181,7.181,0,0,1-4.072-.807C9.322,16.188,9.79,16.053,11.624,15.444ZM8.494,27.306a2.124,2.124,0,1,1,2.124-2.124A2.124,2.124,0,0,1,8.494,27.306Zm17,0a2.124,2.124,0,1,1,2.124-2.124A2.124,2.124,0,0,1,25.489,27.306Zm5.665-2.833h-2.2a3.541,3.541,0,0,0-6.94,0H11.964a3.541,3.541,0,0,0-6.94,0h-2.2a1.416,1.416,0,0,1-1.416-1.416V21.641h.708a.708.708,0,1,0,0-1.416c-.276,0-.389.135.659-.616a26.4,26.4,0,0,1,4.008-2.344,7.733,7.733,0,0,0,4.638,1.544c15.869,0,11.769-.255,18.709.9a2.124,2.124,0,0,0,1.728,3.349h.708A1.416,1.416,0,0,1,31.154,24.473Z" transform="translate(0.013 -13.49)"/></g></g></svg>