<?xml version="1.0" encoding="utf-8"?>
<!-- Generator: Adobe Illustrator 22.1.0, SVG Export Plug-In . SVG Version: 6.00 Build 0)  -->
<svg version="1.1" id="Layer_1" xmlns="http://www.w3.org/2000/svg" xmlns:xlink="http://www.w3.org/1999/xlink" x="0px" y="0px"
	 viewBox="0 0 13.9 19.8" style="enable-background:new 0 0 13.9 19.8;" xml:space="preserve">
<style type="text/css">
	.st0{opacity:0.5;}
</style>
<g transform="translate(4.637 1.98)" class="st0">
	<path d="M7.2,2h-2v-3c0-0.5-0.4-1-1-1h-4c-0.5,0-1,0.4-1,1v3h-2c-1.1,0-2,0.9-2,2v10.9c0,1.1,0.9,2,2,2c0,0.5,0.4,1,1,1
		c0.5,0,1-0.4,1-1h5.9c0,0.5,0.4,1,1,1c0.5,0,1-0.4,1-1c1.1,0,2-0.9,2-2V4C9.2,2.9,8.3,2,7.2,2z M-0.9,13.9L-0.9,13.9
		c-0.4,0-0.7-0.3-0.7-0.7V5.7c0-0.4,0.3-0.7,0.7-0.7l0,0c0.4,0,0.7,0.3,0.7,0.7v7.4C-0.2,13.5-0.5,13.9-0.9,13.9z M2.3,13.9
		L2.3,13.9c-0.4,0-0.7-0.3-0.7-0.7V5.7c0-0.4,0.3-0.7,0.7-0.7l0,0C2.7,5,3,5.3,3,5.7v7.4C3,13.5,2.7,13.9,2.3,13.9z M3.8,2h-3v-2.5
		h3V2z M5.5,13.9L5.5,13.9c-0.4,0-0.7-0.3-0.7-0.7V5.7c0-0.4,0.3-0.7,0.7-0.7l0,0c0.4,0,0.7,0.3,0.7,0.7v7.4
		C6.2,13.5,5.9,13.9,5.5,13.9z"/>
</g>
</svg>
