<svg xmlns="http://www.w3.org/2000/svg" width="13.897" height="20" viewBox="0 0 13.897 20"><defs><style>.a{fill:#827f7f;}</style></defs><g transform="translate(-80)"><path class="a" d="M91.37,2.5H90.107V1.25a.628.628,0,0,0,.632-.625A.628.628,0,0,0,90.107,0H83.79a.628.628,0,0,0-.632.625.628.628,0,0,0,.632.625V2.5H82.527A2.516,2.516,0,0,0,80,5V16.25a2.516,2.516,0,0,0,2.527,2.5h.316v.625a.632.632,0,0,0,1.263,0V18.75h5.685v.625a.632.632,0,0,0,1.263,0V18.75h.316a2.516,2.516,0,0,0,2.527-2.5V5A2.516,2.516,0,0,0,91.37,2.5ZM85.054,1.25h3.79V2.5h-3.79Zm-.632,14.063a.632.632,0,0,1-1.263,0V5.938a.632.632,0,0,1,1.263,0Zm3.158,0a.632.632,0,0,1-1.263,0V5.938a.632.632,0,0,1,1.263,0Zm1.9,0V5.938a.632.632,0,0,1,1.263,0v9.375a.632.632,0,0,1-1.263,0Z"/></g></svg>