<svg xmlns="http://www.w3.org/2000/svg" xmlns:xlink="http://www.w3.org/1999/xlink" width="34" height="34" viewBox="0 0 34 34"><defs><style>.a{fill:#fff;stroke:#707070;}.b{clip-path:url(#a);}.c{fill:#59c36a;}.d{fill:#00a66c;}.e{fill:#ffda2d;}.f{fill:#4086f4;}.g{fill:#4175df;}.h{fill:#ff641a;}.i{fill:#f03800;}</style><clipPath id="a"><circle class="a" cx="17" cy="17" r="17" transform="translate(0.16 0.328)"/></clipPath></defs><g class="b" transform="translate(-0.16 -0.328)"><g transform="translate(0.232 -1.235)"><path class="c" d="M28.647,32.408a17.257,17.257,0,0,1-11.119,4.139A17.29,17.29,0,0,1,2.7,28.013L3.824,22.84,8.8,21.917a9.178,9.178,0,0,0,8.729,6.461,8.984,8.984,0,0,0,5.347-1.742l4.78.729Z" transform="translate(-0.244 -1.98)"/><path class="d" d="M30.119,32.877l-.992-5.043-4.78-.729A8.984,8.984,0,0,1,19,28.847v8.169A17.257,17.257,0,0,0,30.119,32.877Z" transform="translate(-1.717 -2.449)"/><g transform="translate(0 8.534)"><path class="e" d="M8.169,18.131a9.439,9.439,0,0,0,.385,2.653l-6.1,6.1a16.805,16.805,0,0,1,0-17.5l4.893.842,1.2,5.254a9.437,9.437,0,0,0-.385,2.653Z" transform="translate(0 -9.381)"/></g><path class="f" d="M36.183,18.6a17.256,17.256,0,0,1-6.164,13.145L24.246,25.97a8.962,8.962,0,0,0,2.815-3.322H18.9a1,1,0,0,1-1.013-1.013V15.56A1,1,0,0,1,18.9,14.547H34.886a1,1,0,0,1,.992.83,17.173,17.173,0,0,1,.3,3.22Z" transform="translate(-1.616 -1.314)"/><path class="g" d="M27.162,22.648a8.963,8.963,0,0,1-2.815,3.322l5.772,5.772a17.118,17.118,0,0,0,5.86-16.365,1,1,0,0,0-.992-.83H19v8.1Z" transform="translate(-1.717 -1.314)"/><path class="h" d="M28.93,4.827a1.022,1.022,0,0,1-.284.749L24.312,9.891a.992.992,0,0,1-1.316.1,9.059,9.059,0,0,0-5.469-1.823A9.178,9.178,0,0,0,8.8,14.63l-6.1-6.1A17.29,17.29,0,0,1,17.527,0,17.232,17.232,0,0,1,28.566,4.078a1.065,1.065,0,0,1,.365.749Z" transform="translate(-0.244 0)"/><path class="i" d="M24.469,9.992a.992.992,0,0,0,1.316-.1l4.334-4.314a1.021,1.021,0,0,0,.284-.749,1.065,1.065,0,0,0-.365-.749A17.231,17.231,0,0,0,19,0V8.169A9.059,9.059,0,0,1,24.469,9.992Z" transform="translate(-1.717 0)"/></g></g></svg>