<?xml version="1.0" encoding="utf-8"?>
<!-- Generator: Adobe Illustrator 22.1.0, SVG Export Plug-In . SVG Version: 6.00 Build 0)  -->
<svg version="1.1" id="Layer_1" xmlns="http://www.w3.org/2000/svg" xmlns:xlink="http://www.w3.org/1999/xlink" x="0px" y="0px"
	 viewBox="0 0 17.8 17.8" style="enable-background:new 0 0 17.8 17.8;" xml:space="preserve">
<style type="text/css">
	.st0{opacity:0.5;}
</style>
<path class="st0" d="M11.9,5.9H5.9v5.9h5.9V5.9z M9.9,9.9h-2v-2h2V9.9z M17.8,7.9v-2h-2V4c0-1.1-0.9-2-2-2h-2V0h-2v2h-2V0h-2v2H4
	C2.9,2,2,2.9,2,4v2H0v2h2v2H0v2h2v2c0,1.1,0.9,2,2,2h2v2h2v-2h2v2h2v-2h2c1.1,0,2-0.9,2-2v-2h2v-2h-2v-2H17.8z M13.9,13.9H4V4h9.9
	V13.9z"/>
</svg>
