<svg width="43" height="19" viewBox="0 0 43 19" fill="none" xmlns="http://www.w3.org/2000/svg">
<path d="M42.3944 13.5865L42.7595 11.4981C42.6031 10.6625 41.9252 10.1927 41.9252 10.1927C41.8208 9.56623 41.2472 8.52163 41.2472 8.52163C39.3701 6.53737 32.5917 5.64972 32.5917 5.64972C31.6533 5.28404 27.3775 2.36009 27.3775 2.36009C24.6661 0.68903 20.1299 0.271683 20.1299 0.271683C13.7686 -0.354783 4.53959 0.950588 4.53959 0.950588C4.69598 1.62949 4.85238 1.73366 4.85238 1.73366C3.8616 2.88239 1.93256 6.22414 1.93256 6.22414L1.82817 8.52169C1.56739 8.78284 0.941814 9.67041 0.941814 9.67041C0.263864 10.8191 0.941814 14.0042 0.941814 14.0042L1.77616 14.2654C1.46337 10.1406 5.63472 10.1926 5.63472 10.1926C10.2753 10.1926 9.9105 15.1009 9.9105 15.1009L31.0278 15.153C30.8194 9.93152 35.7727 10.2972 35.7727 10.2972C40.4133 11.1848 39.3181 15.2575 39.3181 15.2575L42.0816 14.8398C42.4468 14.6832 42.3944 14.3175 42.3944 14.3175C42.5512 14.0042 42.3944 13.5865 42.3944 13.5865ZM3.49687 6.69392L2.08896 8.15594C2.08896 8.15594 2.14097 6.01504 2.66254 5.49308C2.66254 5.49308 2.87094 5.02323 3.13172 5.28438C3.1841 5.33646 3.54888 6.27621 3.49687 6.69392ZM18.1486 1.05472C18.1486 1.05472 22.9456 1.26342 24.5099 1.9944L28.0553 3.92626L28.4205 6.11928L19.035 5.23168C19.0874 5.23204 18.0442 1.57706 18.1486 1.05472ZM16.4803 1.05472L16.7931 5.28403L10.3798 4.91835L10.3278 1.21091C10.3274 1.21127 16.1671 0.950552 16.4803 1.05472ZM8.65906 1.52493L9.91054 1.31623L10.0669 4.97118L8.24181 4.9191C8.24181 4.9191 7.77262 4.76248 7.87664 3.8224C7.87664 3.82203 7.82471 2.09902 8.65906 1.52493ZM32.3834 10.349C32.3834 9.77458 32.8526 9.46136 32.8526 9.46136C26.4917 7.42498 6.46903 6.64194 6.46903 6.64194C24.0407 4.60556 36.9717 9.77502 36.9717 9.77502C34.3126 9.30481 32.3834 10.349 32.3834 10.349ZM38.1191 7.58158C38.1191 7.58158 40.5178 7.94726 40.987 8.4171C40.987 8.4171 41.6126 9.35678 41.717 10.0357C41.717 10.0357 39.1099 8.88695 38.1191 7.58158Z" fill="white"/>
<path d="M5.7911 10.2969C3.70563 10.2969 1.98487 12.02 1.98487 14.1085C1.98487 16.1969 3.70553 17.9201 5.7911 17.9201C7.87656 17.9201 9.59732 16.197 9.59732 14.1085C9.59732 12.0201 7.92899 10.2969 5.7911 10.2969ZM5.7911 16.8238C4.27918 16.8238 3.07965 15.6229 3.07965 14.1085C3.07965 12.5945 4.27881 11.3933 5.7911 11.3933C7.30301 11.3933 8.50254 12.5941 8.50254 14.1085C8.50218 15.6229 7.30301 16.8238 5.7911 16.8238Z" fill="white"/>
<path d="M3.70544 13.221C3.70544 13.221 3.91385 12.6987 4.27901 12.5421L5.06099 13.5342C5.06099 13.5342 5.16537 13.6909 4.90459 13.7429L3.70544 13.221Z" fill="white"/>
<path d="M5.47825 13.2732L4.69591 12.1765C4.69591 12.1765 5.0087 11.9153 5.47788 11.8633L5.63428 13.1686C5.63464 13.2207 5.63464 13.3253 5.47825 13.2732Z" fill="white"/>
<path d="M6.15609 13.221L6.20809 11.8111C6.20809 11.8111 6.72966 11.759 6.99007 12.0722L6.36448 13.221C6.31247 13.221 6.20846 13.3255 6.15609 13.221Z" fill="white"/>
<path d="M6.6775 13.5865L7.51185 12.4898C7.51185 12.4898 7.92902 12.803 8.03341 13.0642L6.83425 13.7431C6.83389 13.7431 6.62549 13.8473 6.6775 13.5865Z" fill="white"/>
<path d="M6.88606 14.1608L8.29397 13.7952C8.29397 13.7952 8.50238 14.3695 8.18959 14.5782L6.88605 14.3695C6.88605 14.3695 6.72967 14.2129 6.88606 14.1608Z" fill="white"/>
<path d="M6.78178 14.7352L8.03327 15.1009C8.03327 15.1009 7.98126 15.7798 7.45969 15.884L6.67772 14.8918C6.67736 14.9439 6.521 14.7352 6.78178 14.7352Z" fill="white"/>
<path d="M6.31251 15.1529L7.14686 16.1971C7.14686 16.1971 6.67767 16.7715 6.2605 16.5628L6.15611 15.2574C6.15611 15.2574 6.15611 15.1008 6.31251 15.1529Z" fill="white"/>
<path d="M5.73895 15.2573V16.6151C5.73895 16.6151 5.16538 16.7197 4.8526 16.4064L5.47818 15.2577C5.42617 15.2573 5.53055 15.1528 5.73895 15.2573Z" fill="white"/>
<path d="M5.1654 14.9441L4.33105 15.9883C4.33105 15.9883 3.75748 15.8316 3.86186 15.3618L5.00897 14.7353C5.00897 14.7353 5.1654 14.8395 5.1654 14.9441Z" fill="white"/>
<path d="M4.90469 14.3697L3.49678 14.7354C3.49678 14.7354 3.236 14.2655 3.49678 13.8999L4.85236 14.1086C4.85236 14.1086 5.06109 14.2652 4.90469 14.3697Z" fill="white"/>
<path d="M35.4595 10.4014C33.3741 10.4014 31.6533 12.1245 31.6533 14.213C31.6533 16.3015 33.374 18.0245 35.4595 18.0245C37.545 18.0245 39.2658 16.3015 39.2658 14.213C39.2658 12.1245 37.5451 10.4014 35.4595 10.4014ZM35.4595 16.9803C33.9476 16.9803 32.7481 15.7795 32.7481 14.2651C32.7481 12.751 33.9473 11.5498 35.4595 11.5498C36.9715 11.5498 38.171 12.7507 38.171 14.2651C38.1706 15.7271 36.9715 16.9803 35.4595 16.9803Z" fill="white"/>
<path d="M33.3218 13.3254C33.3218 13.3254 33.5302 12.8031 33.8953 12.6465L34.6773 13.6387C34.6773 13.6387 34.7817 13.7953 34.5209 13.8474L33.3218 13.3254Z" fill="white"/>
<path d="M35.1467 13.4298L34.3647 12.3331C34.3647 12.3331 34.6775 12.072 35.1467 12.0199L35.3031 13.3253C35.3035 13.3253 35.3035 13.4298 35.1467 13.4298Z" fill="white"/>
<path d="M35.7724 13.3254L35.8244 11.9155C35.8244 11.9155 36.346 11.8634 36.6064 12.1767L35.9808 13.3775C35.9808 13.3775 35.8244 13.4299 35.7724 13.3254Z" fill="white"/>
<path d="M36.346 13.6909L37.1803 12.5942C37.1803 12.5942 37.5975 12.9074 37.7019 13.1686L36.5027 13.8475C36.45 13.8475 36.2416 13.9521 36.346 13.6909Z" fill="white"/>
<path d="M36.5545 14.3175L37.9624 13.9518C37.9624 13.9518 38.1708 14.5262 37.858 14.7349L36.5545 14.4741C36.5545 14.4741 36.3981 14.3696 36.5545 14.3175Z" fill="white"/>
<path d="M36.3981 14.8918L37.6496 15.2575C37.6496 15.2575 37.5976 15.9364 37.076 16.0406L36.294 15.0484C36.346 15.0484 36.1897 14.8394 36.3981 14.8918Z" fill="white"/>
<path d="M35.981 15.3096L36.8153 16.3538C36.8153 16.3538 36.3461 16.9281 35.929 16.7194L35.8246 15.4141C35.8246 15.3616 35.7726 15.205 35.981 15.3096Z" fill="white"/>
<path d="M35.4074 15.414L35.3554 16.7194C35.3554 16.7194 34.7818 16.8239 34.469 16.5107L35.0946 15.3619C35.0946 15.3619 35.199 15.3098 35.4074 15.414Z" fill="white"/>
<path d="M34.8339 15.0485L33.9995 16.0927C33.9995 16.0927 33.4259 15.9361 33.5303 15.4662L34.6774 14.8398C34.6774 14.8918 34.8339 14.944 34.8339 15.0485Z" fill="white"/>
<path d="M34.5731 14.4741L33.1652 14.8398C33.1652 14.8398 32.9044 14.37 33.1652 14.0043L34.5208 14.213C34.5212 14.213 34.7299 14.4217 34.5731 14.4741Z" fill="white"/>
</svg>
