<svg width="23" height="23" viewBox="0 0 23 23" fill="none" xmlns="http://www.w3.org/2000/svg">
<path d="M5.35282 22.6896H17.7003C20.4292 22.6896 22.6215 20.4974 22.6215 17.7683V14.2791C22.6215 14.0108 22.4427 13.8316 22.174 13.8316C21.9056 13.8316 21.7265 14.0104 21.7265 14.2791V17.7686C21.7265 20.0055 19.9372 21.7948 17.7003 21.7948H5.35289C3.11603 21.7948 1.3267 20.0055 1.3267 17.7686V5.42118C1.3267 3.18432 3.11603 1.395 5.35289 1.395H8.84238C9.11076 1.395 9.28988 1.21619 9.28988 0.947499C9.28988 0.679124 9.11107 0.5 8.84238 0.5H5.35289C2.62392 0.5 0.431641 2.6922 0.431641 5.42124V17.7687C0.431953 20.498 2.62384 22.6899 5.35289 22.6899L5.35282 22.6896Z" fill="#E21936"/>
<path d="M17.7444 1.52877L8.61802 10.6551C8.57339 10.6998 8.52846 10.7893 8.48383 10.834L7.23119 15.3077C7.18657 15.5314 7.32075 15.7998 7.5445 15.8444H7.67869H7.81288L12.2866 14.5918C12.3762 14.5918 12.4208 14.5472 12.4654 14.4576L21.5918 5.33122C22.7102 4.30234 22.7549 2.5576 21.726 1.43917C20.6971 0.320739 18.9523 0.276082 17.8339 1.30498C17.8339 1.43917 17.789 1.4841 17.7444 1.52873L17.7444 1.52877ZM8.30486 14.8157L9.15495 11.7737L11.3471 13.9659L8.30486 14.8157ZM21.5023 3.45247C21.5023 3.94459 21.3235 4.39211 20.9656 4.74968L12.1971 13.5182L9.60233 10.9234L18.4155 2.15493C19.1314 1.43906 20.2945 1.43906 21.0103 2.19955C21.3236 2.51318 21.5024 2.96067 21.5024 3.45251L21.5023 3.45247Z" fill="#E21936"/>
</svg>
