<svg xmlns="http://www.w3.org/2000/svg" width="20" height="20" viewBox="0 0 20 20"><defs><style>.a{opacity:0.5;}.b{fill:#827f7f;}</style></defs><g class="a" transform="translate(0 -30.548)"><g transform="translate(0 30.548)"><path class="b" d="M2.912,50.548H1.495l1-1.138a4.08,4.08,0,0,0,.968-2.278A8.4,8.4,0,0,1,0,40.29a9.863,9.863,0,0,1,10.034-9.742c6.487,0,9.966,4.518,9.966,9.319,0,4.832-3.515,9.348-9.966,9.348a12,12,0,0,1-3.362-.486A4.969,4.969,0,0,1,2.912,50.548Z" transform="translate(0 -30.548)"/></g></g></svg>