<svg xmlns="http://www.w3.org/2000/svg" width="17" height="20" viewBox="0 0 17 20"><defs><style>.a{fill:#63666a;opacity:0.5;}</style></defs><path class="a" d="M17.875,7.5h-.708V5c0-2.758-2.541-5-5.667-5S5.833,2.242,5.833,5V7.5H5.125A2.014,2.014,0,0,0,3,9.375v8.75A2.014,2.014,0,0,0,5.125,20h12.75A2.014,2.014,0,0,0,20,18.125V9.375A2.014,2.014,0,0,0,17.875,7.5ZM7.722,5A3.58,3.58,0,0,1,11.5,1.667,3.58,3.58,0,0,1,15.278,5V7.5H7.722Zm4.722,8.935v1.9a.952.952,0,0,1-1.889,0v-1.9A1.639,1.639,0,0,1,9.611,12.5,1.79,1.79,0,0,1,11.5,10.833,1.79,1.79,0,0,1,13.389,12.5,1.639,1.639,0,0,1,12.444,13.935Z" transform="translate(-3)"/></svg>