<svg width="9" height="10" viewBox="0 0 9 10" fill="none" xmlns="http://www.w3.org/2000/svg">
<path d="M6.39656 2.23637C6.39656 3.32645 5.51297 4.21004 4.42289 4.21004C3.33281 4.21004 2.44922 3.32645 2.44922 2.23637C2.44922 1.14629 3.33281 0.262695 4.42289 0.262695C5.51297 0.262695 6.39656 1.14629 6.39656 2.23637Z" fill="#E21936"/>
<path d="M6.13683 2.23647C6.13683 2.28569 6.13519 2.33654 6.13191 2.38577C6.13026 2.40873 6.12862 2.4317 6.12534 2.45303C6.1237 2.46452 6.12206 2.476 6.12206 2.48748C6.12534 2.46287 6.12698 2.45631 6.12206 2.4842C6.10401 2.58264 6.08269 2.67944 6.05151 2.77623C6.03839 2.81725 6.02198 2.85827 6.00722 2.89928C5.99409 2.93538 6.02526 2.86155 6.00886 2.89764C6.00393 2.90749 6.00065 2.91733 5.99573 2.92717C5.98589 2.95014 5.9744 2.97311 5.96292 2.99608C5.92026 3.07975 5.87268 3.16014 5.81854 3.23725C5.80378 3.25858 5.78901 3.27827 5.77424 3.29795C5.80214 3.26186 5.77424 3.29795 5.76112 3.31272C5.72831 3.3521 5.69549 3.38819 5.66104 3.42428C5.63151 3.45546 5.60034 3.48499 5.56917 3.51452C5.55112 3.53092 5.53143 3.54733 5.51174 3.56374C5.49862 3.57522 5.4494 3.61295 5.48878 3.58342C5.41331 3.63921 5.3362 3.69171 5.25417 3.73764C5.21315 3.76061 5.17049 3.78194 5.12784 3.80163C5.118 3.80655 5.06221 3.82952 5.09011 3.81967C5.12128 3.80655 5.07862 3.82459 5.07042 3.82624C5.05729 3.83116 5.04253 3.83608 5.0294 3.841C4.93917 3.87382 4.84729 3.90006 4.75214 3.91811C4.73081 3.92303 4.70784 3.92631 4.68651 3.92959C4.67831 3.93124 4.63073 3.93944 4.66518 3.93288C4.698 3.92795 4.66026 3.93288 4.65534 3.93452C4.60612 3.93944 4.5569 3.94436 4.50768 3.946C4.40432 3.95092 4.30096 3.946 4.1976 3.93452C4.1451 3.92959 4.22878 3.94108 4.17791 3.93124C4.15659 3.92795 4.13362 3.92303 4.11229 3.91975C4.06143 3.90991 4.01057 3.89842 3.96135 3.88366C3.91542 3.87053 3.86948 3.85577 3.82518 3.83936C3.80385 3.83116 3.78416 3.82295 3.76448 3.81639C3.73659 3.80655 3.77432 3.81967 3.77596 3.82131C3.76284 3.81475 3.74971 3.80983 3.73659 3.80327C3.648 3.76225 3.56268 3.71467 3.48065 3.66217C3.44128 3.63592 3.40354 3.60967 3.36581 3.58178C3.4019 3.60967 3.36581 3.58178 3.35104 3.56866C3.33136 3.55225 3.31331 3.53584 3.29362 3.51944C3.22143 3.45546 3.15417 3.38491 3.09182 3.31108C3.0787 3.29631 3.05245 3.26022 3.0787 3.29631C3.06557 3.27991 3.05245 3.26186 3.04096 3.24381C3.01143 3.2028 2.98354 3.16014 2.95893 3.11749C2.93596 3.07975 2.91627 3.04202 2.89495 3.00429C2.88346 2.98132 2.87198 2.95835 2.86213 2.93538C2.85393 2.91897 2.83096 2.85991 2.84901 2.90749C2.81292 2.81397 2.78174 2.7221 2.75877 2.6253C2.74893 2.58264 2.73909 2.53835 2.73252 2.49405C2.73088 2.48257 2.72924 2.47108 2.7276 2.46124C2.72924 2.47108 2.73417 2.51538 2.7276 2.46452C2.72432 2.43827 2.72268 2.41202 2.7194 2.38577C2.7112 2.28569 2.7112 2.18561 2.7194 2.08718C2.72104 2.06093 2.72432 2.03468 2.7276 2.00843C2.73252 1.95593 2.72104 2.0396 2.73088 1.98874C2.74073 1.93788 2.74893 1.88702 2.76206 1.83616C2.78503 1.74265 2.8162 1.65405 2.85065 1.56382C2.83424 1.60648 2.85065 1.56382 2.85885 1.54577C2.8687 1.5228 2.88018 1.49984 2.89167 1.47686C2.913 1.43421 2.93597 1.39319 2.96057 1.35382C2.98518 1.31444 3.00979 1.27507 3.03768 1.23569C3.05081 1.21764 3.06393 1.20124 3.07542 1.18319C3.09182 1.15858 3.06885 1.19139 3.06721 1.19304C3.0787 1.17991 3.09018 1.16514 3.10167 1.15202C3.16237 1.08147 3.22635 1.0142 3.29526 0.951862C3.31167 0.937096 3.32807 0.923971 3.34448 0.909205C3.35432 0.901002 3.41338 0.855064 3.36745 0.889517C3.40518 0.861627 3.44291 0.833736 3.48229 0.809127C3.56432 0.754986 3.64963 0.709049 3.73822 0.668033C3.75627 0.65983 3.79893 0.643424 3.75627 0.65983C3.77596 0.651627 3.79729 0.643424 3.81697 0.636861C3.86455 0.618815 3.91377 0.604047 3.96299 0.589284C4.00893 0.576159 4.05651 0.564675 4.10408 0.554832C4.12541 0.54991 4.14838 0.546629 4.16971 0.543348C4.18119 0.541707 4.19268 0.540067 4.20252 0.538426C4.17955 0.543348 4.17135 0.541708 4.19924 0.538426C4.3026 0.526942 4.40596 0.52202 4.50932 0.526942C4.55526 0.528582 4.60119 0.531864 4.64549 0.536786C4.65698 0.538426 4.66846 0.540067 4.67994 0.540067C4.6258 0.533504 4.66682 0.538426 4.67666 0.540067C4.70291 0.544989 4.72752 0.54827 4.75377 0.554833C4.84729 0.57452 4.9408 0.599131 5.03104 0.631942C5.05565 0.640145 5.07862 0.649989 5.10322 0.659832C5.06057 0.643426 5.10322 0.659832 5.12127 0.668036C5.16721 0.689364 5.21315 0.712334 5.25744 0.736943C5.33948 0.782879 5.41823 0.833741 5.49205 0.891161C5.45596 0.86327 5.49205 0.891161 5.50682 0.904286C5.52651 0.920692 5.54455 0.937099 5.56424 0.953503C5.59869 0.984676 5.63315 1.01749 5.66432 1.0503C5.69713 1.08312 5.7283 1.11921 5.75784 1.15366C5.7644 1.16186 5.80213 1.2078 5.78409 1.18647C5.7644 1.16187 5.78737 1.18976 5.78901 1.19468C5.79885 1.20944 5.81034 1.22421 5.82018 1.23898C5.87432 1.31608 5.9219 1.39648 5.96456 1.48015C5.9744 1.49984 5.98424 1.51952 5.99245 1.53921C6.00065 1.55562 6.02526 1.61468 6.00557 1.5671C6.02362 1.6114 6.04002 1.6557 6.05479 1.70164C6.08596 1.79679 6.10729 1.89359 6.12534 1.99367C6.13518 2.04453 6.12206 1.96085 6.12862 2.01336C6.13026 2.03632 6.13354 2.05929 6.13518 2.08062C6.13354 2.12984 6.13518 2.18234 6.13682 2.23648C6.13682 2.37429 6.25659 2.50554 6.39932 2.49898C6.54041 2.49242 6.66182 2.38414 6.66182 2.23648C6.6569 1.29475 6.05972 0.45475 5.17706 0.12991C4.31738 -0.18674 3.29525 0.090535 2.71448 0.79765C2.41262 1.1635 2.23379 1.60156 2.19605 2.07571C2.15996 2.52853 2.27316 2.99611 2.50613 3.38329C2.99504 4.19704 3.95315 4.60885 4.88012 4.4251C5.76605 4.24955 6.49613 3.49486 6.63068 2.60074C6.64873 2.47933 6.66185 2.35793 6.66185 2.23489C6.66185 2.09708 6.54045 1.96583 6.39935 1.97239C6.25498 1.98059 6.13685 2.09051 6.13685 2.23653L6.13683 2.23647Z" fill="#E21936"/>
<path d="M8.04171 9.03035H0.798209C0.501257 9.03035 0.261719 8.79081 0.261719 8.49385V8.13455C0.261719 6.32495 1.72845 4.85645 3.53982 4.85645H5.30022C7.10982 4.85645 8.57832 6.32318 8.57832 8.13455V8.49385C8.57832 8.79081 8.33715 9.03035 8.04183 9.03035H8.04171Z" fill="#E21936"/>
<path d="M8.04114 8.76961H7.23066H5.32098H3.0963H1.34082H0.883081H0.80269H0.77808C0.728862 8.76961 0.769877 8.76961 0.781361 8.77125C0.766596 8.76797 0.75183 8.76633 0.738705 8.76304C0.723939 8.75976 0.710814 8.75484 0.697689 8.74992C0.636987 8.73187 0.735422 8.77453 0.681282 8.74172C0.666516 8.73351 0.604173 8.68758 0.64683 8.72367C0.625502 8.70562 0.605814 8.68594 0.586128 8.66461C0.543471 8.62195 0.594332 8.69086 0.581207 8.65968C0.576285 8.64656 0.566441 8.63507 0.558238 8.62359C0.553316 8.61703 0.533628 8.57601 0.548394 8.60718C0.5648 8.64 0.541832 8.58586 0.538551 8.57765C0.533629 8.55961 0.530348 8.54156 0.525426 8.52515C0.515582 8.48906 0.523785 8.56781 0.527066 8.52843C0.528707 8.51531 0.525426 8.50218 0.525426 8.48906V8.3939V8.14945C0.525426 8.04609 0.528707 7.94109 0.538551 7.83772C0.541832 7.80819 0.545113 7.77702 0.548394 7.74749C0.553316 7.69663 0.548394 7.74092 0.548394 7.75077C0.550035 7.736 0.553316 7.72124 0.554957 7.70647C0.5648 7.64085 0.577925 7.57522 0.59105 7.5096C0.618941 7.38327 0.653393 7.26022 0.694409 7.13882C0.714096 7.07976 0.737066 7.02234 0.760034 6.96492C0.764956 6.95507 0.781362 6.91898 0.758393 6.9682C0.764956 6.95507 0.769877 6.94195 0.77644 6.92882C0.791206 6.89601 0.805971 6.8632 0.822376 6.83039C0.876517 6.72047 0.935578 6.61382 1.0012 6.51047C1.03238 6.46289 1.06355 6.41531 1.098 6.36773C1.11605 6.34148 1.13573 6.31688 1.15542 6.29063C1.17839 6.25945 1.12917 6.3218 1.15378 6.29227C1.16527 6.27914 1.17675 6.26437 1.1866 6.25125C1.26535 6.15445 1.35066 6.06258 1.43925 5.97562C1.48191 5.93297 1.52785 5.89195 1.57379 5.85258C1.59511 5.83453 1.61644 5.81484 1.63941 5.79679C1.6509 5.78695 1.66074 5.77875 1.67222 5.7689C1.67879 5.76398 1.73457 5.71969 1.68699 5.75742C1.88222 5.60976 2.09058 5.48344 2.31372 5.38173C2.33013 5.37353 2.34653 5.36696 2.36294 5.3604C2.39739 5.34235 2.32356 5.37517 2.35966 5.36204C2.38591 5.3522 2.4138 5.34071 2.44005 5.32923C2.50075 5.30626 2.5631 5.28493 2.62544 5.26524C2.74849 5.22587 2.87317 5.1947 3.00113 5.17173C3.03066 5.16681 3.06019 5.16188 3.08972 5.15696C3.10941 5.15368 3.18816 5.14384 3.13074 5.1504C3.198 5.1422 3.26527 5.13563 3.33417 5.13071C3.40636 5.12579 3.48019 5.12415 3.55238 5.12415H5.25698H5.35705C5.42104 5.12579 5.48666 5.12907 5.55065 5.13235C5.58018 5.13399 5.61135 5.13727 5.64088 5.14056C5.65565 5.1422 5.67041 5.14384 5.68518 5.14548C5.76065 5.15368 5.63104 5.13727 5.70487 5.14712C5.95588 5.18485 6.20197 5.24884 6.43822 5.34399C6.45134 5.34892 6.46447 5.35548 6.47923 5.3604C6.51533 5.37517 6.4415 5.34235 6.47595 5.35876C6.5022 5.37188 6.52845 5.38173 6.5547 5.39485C6.61376 5.42274 6.67118 5.45228 6.72861 5.48345C6.83853 5.54415 6.94517 5.60977 7.04853 5.68196C7.0715 5.69837 7.09446 5.71478 7.11743 5.73282C7.12892 5.74102 7.1404 5.74923 7.15189 5.75907C7.11087 5.7279 7.1404 5.75087 7.15025 5.75743C7.19946 5.79845 7.25032 5.83946 7.2979 5.88212C7.39142 5.96579 7.48001 6.05438 7.56204 6.1479C7.59978 6.19056 7.63587 6.23485 7.67197 6.27915C7.68017 6.29063 7.7097 6.32837 7.67689 6.28571C7.68509 6.2972 7.69494 6.30868 7.70314 6.32016C7.72283 6.34641 7.74087 6.37266 7.75892 6.39891C7.83111 6.50227 7.89674 6.60891 7.9558 6.71883C7.98369 6.76969 8.00994 6.82055 8.03455 6.87305C8.04767 6.8993 8.05916 6.92555 8.07064 6.9518C8.10017 7.01578 8.05751 6.91899 8.07392 6.95836C8.08048 6.97477 8.08704 6.99118 8.09361 7.00922C8.14118 7.12899 8.18056 7.25039 8.21337 7.37345C8.24619 7.49486 8.26916 7.61954 8.28884 7.74422C8.2954 7.78852 8.28228 7.68024 8.28884 7.75242C8.29048 7.76719 8.29212 7.78196 8.29376 7.79672C8.29705 7.82625 8.30033 7.85743 8.30197 7.88696C8.30689 7.95586 8.31017 8.02477 8.31181 8.09203C8.31345 8.22657 8.31509 8.36274 8.31181 8.49727C8.31181 8.5022 8.31017 8.52352 8.31017 8.53173C8.31345 8.56946 8.32165 8.49235 8.31181 8.52845C8.30361 8.55962 8.29704 8.59079 8.28556 8.62196C8.30525 8.56946 8.27079 8.64001 8.26423 8.65478C8.25931 8.66626 8.2347 8.69251 8.26751 8.65313C8.25767 8.66462 8.24947 8.67446 8.23962 8.68431C8.22486 8.69907 8.16744 8.74009 8.21173 8.7122C8.18712 8.72696 8.16251 8.74009 8.13791 8.75486C8.17728 8.73025 8.15759 8.74829 8.14119 8.75321C8.12314 8.75814 8.10673 8.7647 8.08869 8.76798C8.08048 8.76962 8.03455 8.77618 8.069 8.7729C8.11493 8.7647 8.04111 8.76962 8.04111 8.76962C7.90329 8.7729 7.77204 8.88775 7.77861 9.03212C7.78517 9.17157 7.89345 9.2979 8.04111 9.29462C8.39055 9.28806 8.68917 9.06985 8.80236 8.73845C8.86306 8.5629 8.84009 8.35619 8.84009 8.17244C8.84009 7.64087 8.73017 7.12571 8.51033 6.64337C8.06408 5.66555 7.14533 4.92401 6.0986 4.68611C5.75243 4.60736 5.40461 4.59588 5.05187 4.59588H3.97235C3.659 4.59588 3.35054 4.59095 3.03884 4.63361C2.51219 4.7058 1.99868 4.90103 1.56065 5.20292C0.640252 5.83292 0.0594821 6.86159 0.00533209 7.97558C-0.00287111 8.14292 0.000410138 8.31026 0.00205084 8.4776C0.00369145 8.77127 0.152987 9.0551 0.415481 9.19619C0.589388 9.28971 0.766571 9.29463 0.953621 9.29463H2.37931H4.60891H6.76306H7.9837H8.04276C8.18058 9.29463 8.31183 9.17322 8.30526 9.03213C8.29706 8.88939 8.18714 8.76963 8.04112 8.76963L8.04114 8.76961Z" fill="#E21936"/>
</svg>
