<?xml version="1.0" encoding="utf-8"?>
<!-- Generator: Adobe Illustrator 22.1.0, SVG Export Plug-In . SVG Version: 6.00 Build 0)  -->
<svg version="1.1" id="Layer_1" xmlns="http://www.w3.org/2000/svg" xmlns:xlink="http://www.w3.org/1999/xlink" x="0px" y="0px"
	 viewBox="0 0 15.8 15.8" style="enable-background:new 0 0 15.8 15.8;" xml:space="preserve">
<style type="text/css">
	.st0{opacity:0.5;}
</style>
<path class="st0" d="M7.9,1.9C9.1,1.9,10,2.8,10,4C10,5.1,9.1,6,7.9,6S5.8,5.1,5.8,4c0,0,0,0,0,0C5.8,2.8,6.8,1.9,7.9,1.9
	C7.9,1.9,7.9,1.9,7.9,1.9 M7.9,10.8c2.9,0,6,1.4,6,2.1V14H1.9v-1.1C1.9,12.2,5,10.8,7.9,10.8 M7.9,0C5.7,0,4,1.8,4,4s1.8,4,4,4
	s4-1.8,4-4C11.9,1.8,10.1,0,7.9,0C7.9,0,7.9,0,7.9,0z M7.9,8.9c-2.6,0-7.9,1.3-7.9,4v3h15.8v-3C15.8,10.2,10.6,8.9,7.9,8.9z"/>
</svg>
