<svg xmlns="http://www.w3.org/2000/svg" width="20" height="20" viewBox="0 0 20 20"><defs><style>.a{opacity:0.5;}.b{fill:#63666a;fill-rule:evenodd;}</style></defs><g class="a" transform="translate(0 2.278)"><path class="b" d="M2489.761,47.466l-4.377-1.875a.937.937,0,0,0-.593-.048.955.955,0,0,0-.5.317l-1.936,2.367a14.472,14.472,0,0,1-6.92-6.921l2.366-1.938a.925.925,0,0,0,.313-.5.882.882,0,0,0-.048-.592l-1.875-4.375a.935.935,0,0,0-.436-.465.945.945,0,0,0-.634-.078l-4.064.938a.938.938,0,0,0-.729.914,18.124,18.124,0,0,0,18.131,18.125.947.947,0,0,0,.912-.727l.934-4.062a.986.986,0,0,0-.074-.637.955.955,0,0,0-.471-.44Z" transform="translate(-2470.33 -35.611)"/></g></svg>