<svg xmlns="http://www.w3.org/2000/svg" width="21.666" height="21.712" viewBox="0 0 21.666 21.712"><defs><style>.a{fill:#fff;}</style></defs><g transform="translate(-0.539)"><g transform="translate(0.539 0)"><path class="a" d="M21.637,15.934l-3.03-3.03a2.015,2.015,0,0,0-3.355.757,2.062,2.062,0,0,1-2.381,1.3A9.344,9.344,0,0,1,7.245,9.333a1.961,1.961,0,0,1,1.3-2.381A2.015,2.015,0,0,0,9.3,3.6L6.271.568a2.161,2.161,0,0,0-2.922,0L1.293,2.624c-2.056,2.164.216,7.9,5.3,12.986s10.821,7.467,12.986,5.3l2.056-2.056A2.161,2.161,0,0,0,21.637,15.934Z" transform="translate(-0.539 0)"/></g></g></svg>