<svg xmlns="http://www.w3.org/2000/svg" width="24" height="21" viewBox="0 0 24 21"><defs><style>.a{fill:#c8102e;}</style></defs><g transform="translate(0 -21.333)"><g transform="translate(0 21.333)"><path class="a" d="M23.592,26A16.526,16.526,0,0,0,12,21.333,16.526,16.526,0,0,0,.409,26a1.333,1.333,0,0,0,0,1.921l2.306,2.241a1.522,1.522,0,0,0,2.045,0,10.09,10.09,0,0,1,2.6-1.834,1.339,1.339,0,0,0,.782-1.159l.348-2.429a11.179,11.179,0,0,1,7.017,0l.344,2.368a1.376,1.376,0,0,0,.775,1.224,10.122,10.122,0,0,1,2.607,1.836,1.484,1.484,0,0,0,2.045,0l2.312-2.247A1.333,1.333,0,0,0,23.592,26Z" transform="translate(0 -21.333)"/><path class="a" d="M59.423,193.223A2.579,2.579,0,0,0,57.183,192h-8.73a2.579,2.579,0,0,0-2.239,1.223l-3.249,5.546a2.158,2.158,0,0,0-.3,1.087v3.235a1.948,1.948,0,0,0,2.03,1.849H60.94a1.948,1.948,0,0,0,2.03-1.849v-3.235a2.161,2.161,0,0,0-.3-1.088Zm-9.651,8.944a.928.928,0,1,1,1.015-.924A.974.974,0,0,1,49.772,202.167Zm0-2.773a.928.928,0,1,1,1.015-.924A.974.974,0,0,1,49.772,199.394Zm0-2.773a.928.928,0,1,1,1.015-.924A.974.974,0,0,1,49.772,196.621Zm3.046,5.546a.928.928,0,1,1,1.015-.924A.974.974,0,0,1,52.818,202.167Zm0-2.773a.928.928,0,1,1,1.015-.924A.974.974,0,0,1,52.818,199.394Zm0-2.773a.928.928,0,1,1,1.015-.924A.974.974,0,0,1,52.818,196.621Zm3.044,5.546a.928.928,0,1,1,1.015-.924A.974.974,0,0,1,55.863,202.167Zm0-2.773a.928.928,0,1,1,1.015-.924A.974.974,0,0,1,55.863,199.394Zm0-2.773a.928.928,0,1,1,1.015-.924A.974.974,0,0,1,55.863,196.621Z" transform="translate(-40.818 -183.94)"/></g></g></svg>