<svg xmlns="http://www.w3.org/2000/svg" width="16.879" height="16.878" viewBox="0 0 16.879 16.878"><defs><style>.a{opacity:0.5;}.b{fill:#827f7f;fill-rule:evenodd;}</style></defs><g class="a" transform="translate(0)"><path class="b" d="M2486.729,45.26l-3.694-1.582a.79.79,0,0,0-.5-.04.806.806,0,0,0-.42.268l-1.634,2a12.213,12.213,0,0,1-5.84-5.841l2-1.635A.78.78,0,0,0,2476.9,38a.746.746,0,0,0-.041-.5l-1.583-3.692a.788.788,0,0,0-.368-.392.8.8,0,0,0-.535-.066l-3.43.792a.815.815,0,0,0-.443.278.805.805,0,0,0-.173.493,15.3,15.3,0,0,0,15.3,15.3.8.8,0,0,0,.77-.613l.788-3.428a.831.831,0,0,0-.063-.538.807.807,0,0,0-.4-.372Z" transform="translate(-2470.33 -33.333)"/></g></svg>