<svg xmlns="http://www.w3.org/2000/svg" width="22" height="20" viewBox="0 0 22 20"><defs><style>.a{fill:#c8102e;}</style></defs><g transform="translate(0 -21.333)"><g transform="translate(0 21.333)"><path class="a" d="M21.626,26A14.432,14.432,0,0,0,.375,26a1.419,1.419,0,0,0,0,1.921l2.114,2.241a1.31,1.31,0,0,0,1.875,0,9.3,9.3,0,0,1,2.385-1.834,1.347,1.347,0,0,0,.717-1.159l.319-2.429a9.438,9.438,0,0,1,6.433,0l.315,2.368a1.391,1.391,0,0,0,.71,1.224,9.324,9.324,0,0,1,2.39,1.836,1.279,1.279,0,0,0,1.875,0l2.119-2.247A1.419,1.419,0,0,0,21.626,26Z" transform="translate(0 -21.333)"/><path class="a" d="M57.772,193.223A2.281,2.281,0,0,0,55.753,192h-7.87a2.281,2.281,0,0,0-2.019,1.223l-2.929,5.546a2.34,2.34,0,0,0-.269,1.087v3.235a1.842,1.842,0,0,0,1.83,1.849H59.14a1.842,1.842,0,0,0,1.83-1.849v-3.235a2.343,2.343,0,0,0-.269-1.088Zm-8.7,8.944a.924.924,0,1,1,.915-.924A.921.921,0,0,1,49.072,202.167Zm0-2.773a.924.924,0,1,1,.915-.924A.921.921,0,0,1,49.072,199.394Zm0-2.773a.924.924,0,1,1,.915-.924A.921.921,0,0,1,49.072,196.621Zm2.746,5.546a.924.924,0,1,1,.915-.924A.921.921,0,0,1,51.818,202.167Zm0-2.773a.924.924,0,1,1,.915-.924A.921.921,0,0,1,51.818,199.394Zm0-2.773a.924.924,0,1,1,.915-.924A.921.921,0,0,1,51.818,196.621Zm2.745,5.546a.924.924,0,1,1,.915-.924A.921.921,0,0,1,54.563,202.167Zm0-2.773a.924.924,0,1,1,.915-.924A.921.921,0,0,1,54.563,199.394Zm0-2.773a.924.924,0,1,1,.915-.924A.921.921,0,0,1,54.563,196.621Z" transform="translate(-40.818 -184.94)"/></g></g></svg>