<svg xmlns="http://www.w3.org/2000/svg" width="22" height="20" viewBox="0 0 22 20"><defs><style>.a{fill:#c8102e;}</style></defs><g transform="translate(0 0)"><g transform="translate(0 0)"><g transform="translate(0 0)"><path class="a" d="M21.626,25.98a14.471,14.471,0,0,0-21.251,0,1.409,1.409,0,0,0,0,1.914l2.114,2.232a1.314,1.314,0,0,0,1.875,0A9.291,9.291,0,0,1,6.749,28.3a1.341,1.341,0,0,0,.717-1.154l.319-2.419a9.474,9.474,0,0,1,6.433,0l.315,2.359a1.385,1.385,0,0,0,.71,1.219,9.32,9.32,0,0,1,2.39,1.829,1.283,1.283,0,0,0,1.875,0l2.119-2.239A1.409,1.409,0,0,0,21.626,25.98Z" transform="translate(0 -21.333)"/><path class="a" d="M57.784,193.218A2.285,2.285,0,0,0,55.764,192H47.888a2.285,2.285,0,0,0-2.021,1.218l-2.931,5.524a2.322,2.322,0,0,0-.269,1.083v3.222a1.839,1.839,0,0,0,1.832,1.841H59.153a1.839,1.839,0,0,0,1.832-1.841v-3.222a2.325,2.325,0,0,0-.269-1.083Zm-8.707,8.909a.921.921,0,1,1,.916-.921A.919.919,0,0,1,49.077,202.127Zm0-2.762a.921.921,0,1,1,.916-.921A.919.919,0,0,1,49.077,199.365Zm0-2.762a.921.921,0,1,1,.916-.921A.919.919,0,0,1,49.077,196.6Zm2.749,5.524a.921.921,0,1,1,.916-.921A.919.919,0,0,1,51.826,202.127Zm0-2.762a.921.921,0,1,1,.916-.921A.919.919,0,0,1,51.826,199.365Zm0-2.762a.921.921,0,1,1,.916-.921A.919.919,0,0,1,51.826,196.6Zm2.747,5.524a.921.921,0,1,1,.916-.921A.919.919,0,0,1,54.572,202.127Zm0-2.762a.921.921,0,1,1,.916-.921A.919.919,0,0,1,54.572,199.365Zm0-2.762a.921.921,0,1,1,.916-.921A.919.919,0,0,1,54.572,196.6Z" transform="translate(-40.826 -184.889)"/></g></g></g></svg>