<svg xmlns="http://www.w3.org/2000/svg" width="20" height="20" viewBox="0 0 20 20"><defs><style>.a{fill:#c8102e;fill-rule:evenodd;}</style></defs><g transform="translate(0 0)"><path class="a" d="M2489.761,47.466l-4.377-1.875a.937.937,0,0,0-.593-.048.955.955,0,0,0-.5.317l-1.937,2.367a14.472,14.472,0,0,1-6.92-6.921l2.365-1.938a.924.924,0,0,0,.314-.5.884.884,0,0,0-.048-.592l-1.875-4.375a.932.932,0,0,0-.436-.465.945.945,0,0,0-.634-.078l-4.063.938a.966.966,0,0,0-.525.33.954.954,0,0,0-.2.584,18.124,18.124,0,0,0,18.131,18.125.947.947,0,0,0,.912-.727l.934-4.062a.986.986,0,0,0-.074-.637.955.955,0,0,0-.471-.44Z" transform="translate(-2470.33 -33.333)"/></g></svg>