<?xml version="1.0" encoding="utf-8"?>
<!-- Generator: Adobe Illustrator 25.0.1, SVG Export Plug-In . SVG Version: 6.00 Build 0)  -->
<svg version="1.1" id="Layer_1" xmlns="http://www.w3.org/2000/svg" xmlns:xlink="http://www.w3.org/1999/xlink" x="0px" y="0px"
	 viewBox="0 0 408.8 408.8" style="enable-background:new 0 0 408.8 408.8;" xml:space="preserve">
<style type="text/css">
	.st0{fill:#E21936;}
</style>
<g>
	<path class="st0" d="M408.8,190c-1.6,2.7-2.7,5.9-4.9,8.1c-4.6,4.7-10.4,5.9-16.5,3.7c-6.2-2.3-9.6-6.9-10.4-13.4
		c-0.2-1.8-0.1-3.7-0.1-5.6c0-28.1,0-56.1,0-84.2c0-21.2-13.4-34.6-34.6-34.7c-5.8,0-11.7,0-18.1,0c0,5.6,0.2,11,0,16.4
		c-0.5,12.5-13.9,19.6-24.3,13.1c-5-3.1-7.4-7.9-7.5-13.7c-0.1-5,0-10.1,0-15.4c-24.2,0-48.2,0-72.7,0c0,4.7,0,9.4,0,14.2
		c-0.1,10.2-6.5,17.3-15.8,17.4c-9.4,0.1-16.1-7.1-16.1-17.5c0-4.6,0-9.3,0-14.2c-24,0-47.7,0-71.9,0c0,4.8,0,9.6,0,14.3
		c-0.1,10.2-6.6,17.3-15.9,17.3c-9.3,0.1-16-7.1-16.1-17.2c0-4.8,0-9.5,0-15.2c-9.4,0.5-18.7-0.1-27.6,1.7
		C41.8,68.1,32.5,80.6,32,95.8c-0.1,4.1,0,8.2,0,12.4c0,78.1,0,156.2,0,234.3c0,14,5.4,25,18.3,31c4.9,2.3,10.7,3.2,16.2,3.3
		c39.2,0.3,78.5,0.2,117.7,0.1c5.3,0,10.1,1.2,13.7,5.3c4.2,4.8,5.4,10.4,3.1,16.4c-2.3,6-6.9,9.3-13.2,10.2c-1,0.1-2.1,0.1-3.2,0.1
		c-40,0-80.1,0.1-120.1,0c-31.2-0.1-56.8-21.1-63-51.3c-0.8-3.8-1.3-7.6-1.3-11.5C0,262.3-0.1,178.6,0.2,94.9
		c0.1-30.4,21.6-55.8,51.4-61.6c6.6-1.3,13.5-1,20.2-1.4c3.8-0.2,7.7,0,12.1,0c0-4.1,0.2-8.1,0-12C83.2,10,87.1,3.3,96.6,0
		c2.1,0,4.3,0,6.4,0c9.5,3.3,13.5,10,12.8,19.9c-0.3,3.9,0,7.9,0,11.8c24.2,0,47.9,0,71.9,0c0-4.1,0.2-8,0-11.8
		C187,10,190.9,3.3,200.4,0c2.1,0,4.3,0,6.4,0c9.5,3.3,13.5,10,12.8,19.9c-0.3,3.9,0,7.9,0,11.8c24.5,0,48.5,0,72.7,0
		c0-4.1,0.2-8,0-11.8C291.6,10,295.5,3.3,305,0c2.1,0,4.3,0,6.4,0c9.5,3.3,13.5,10,12.8,19.9c-0.3,3.9,0,7.9,0,12.1
		c7.9,0,15.4-0.3,22.8,0.1c25.2,1.4,43.8,13.4,55.2,35.9c3.2,6.4,4.5,13.7,6.6,20.7C408.8,122.4,408.8,156.2,408.8,190z"/>
	<path class="st0" d="M408.8,320.2c-2.3,9.1-3.7,18.5-6.9,27.3c-15.2,41.4-61.1,67.7-104.5,60c-38.3-6.8-64.8-28.7-76.7-65.6
		c-12.3-37.9-3.3-72.1,25.5-99.7c26.5-25.4,58.8-33,93.8-22.3c37.3,11.4,59.8,37.6,67.4,76.1c0.5,2.7,1,5.5,1.5,8.2
		C408.8,309.5,408.8,314.9,408.8,320.2z M376.9,312.2c0-35.6-29.2-64.7-64.7-64.7c-35.4,0.1-64.4,29-64.6,64.4
		c-0.1,35.6,28.9,64.8,64.5,64.9C347.7,376.9,376.9,347.8,376.9,312.2z"/>
	<path class="st0" d="M115.8,167.5c0.1,8.8-7.1,16.1-15.9,16.1c-8.8,0-16-7.2-16-16c0-8.6,7.1-15.8,15.7-15.9
		C108.3,151.6,115.7,158.7,115.8,167.5z"/>
	<path class="st0" d="M185.2,167.5c0.1,8.8-7.1,16.1-15.9,16.1c-8.8,0-16-7.2-16-16c0-8.6,7.1-15.8,15.7-15.9
		C177.8,151.6,185.2,158.8,185.2,167.5z"/>
	<path class="st0" d="M254.7,167.7c0,8.8-7.3,16-16.1,15.9c-8.8-0.1-15.9-7.4-15.8-16.2c0.1-8.6,7.3-15.7,15.9-15.7
		C247.5,151.7,254.7,159,254.7,167.7z"/>
	<path class="st0" d="M324.2,167.6c0.1,8.8-7.1,16-15.9,16.1c-8.8,0-16-7.2-16-16c0-8.6,7.1-15.7,15.7-15.9
		C316.8,151.6,324.1,158.8,324.2,167.6z"/>
	<path class="st0" d="M99.8,253.1c-8.8,0-16-7.3-15.9-16.1c0.1-8.8,7.4-15.9,16.2-15.8c8.6,0.1,15.7,7.2,15.7,15.9
		C115.8,245.8,108.6,253.1,99.8,253.1z"/>
	<path class="st0" d="M185.2,236.9c0.1,8.8-7.1,16.1-15.9,16.1c-8.8,0-16-7.2-16-16c0-8.6,7-15.8,15.7-15.9
		C177.8,221,185.1,228.2,185.2,236.9z"/>
	<path class="st0" d="M99.6,322.5c-8.8-0.1-15.9-7.5-15.7-16.3c0.2-8.8,7.6-15.9,16.4-15.6c8.6,0.2,15.6,7.4,15.5,16.1
		C115.7,315.5,108.4,322.7,99.6,322.5z"/>
	<path class="st0" d="M185.2,306.7c0,8.8-7.3,16-16.1,15.9c-8.8-0.1-15.9-7.4-15.8-16.2c0.2-8.6,7.3-15.6,15.9-15.7
		C178.1,290.6,185.3,297.9,185.2,306.7z"/>
	<path class="st0" d="M328.2,296.2c2.8,0,5.2-0.1,7.6,0c8.9,0.4,15.6,7.3,15.6,16c0,8.6-6.7,15.6-15.7,15.9
		c-7.8,0.2-15.7,0.2-23.5,0c-9-0.2-15.7-6.7-15.8-15.7c-0.2-11-0.2-22.1,0-33.1c0.2-9.1,7.3-15.9,16.1-15.8
		c8.6,0.1,15.5,6.8,15.7,15.8C328.3,284.7,328.2,290.2,328.2,296.2z"/>
</g>
</svg>
