<svg width="22" height="22" viewBox="0 0 22 22" fill="none" xmlns="http://www.w3.org/2000/svg">
<path d="M19.5796 4.78895H16.4266V1.17817C16.4266 0.699429 16.0572 0.330078 15.5785 0.330078H6.44399C5.96525 0.330078 5.5959 0.699413 5.5959 1.17817V4.7211C5.5959 4.73546 5.59658 4.75013 5.59804 4.76489H2.41905C1.14494 4.76489 0.125 5.78483 0.125 7.05895V14.1448C0.125 15.4189 1.14494 16.4389 2.41905 16.4389H5.48C5.52141 16.4389 5.56026 16.4319 5.59608 16.4192V20.8209C5.59608 21.2996 5.96542 21.669 6.44417 21.669H15.5787C16.0574 21.669 16.4268 21.2996 16.4268 20.8209L16.4267 16.2586C16.4435 16.2961 16.4666 16.3303 16.4963 16.36C16.565 16.4288 16.6587 16.4629 16.7595 16.4629H19.5794C20.8535 16.4629 21.8734 15.443 21.8734 14.1689L21.8736 7.08301C21.8736 5.8089 20.8537 4.78895 19.5796 4.78895ZM16.4266 15.9351L16.4266 13.378H18.1575C18.2581 13.378 18.3518 13.3439 18.4206 13.2752C18.4894 13.2064 18.5235 13.1127 18.5235 13.0119C18.5235 12.9112 18.4895 12.8176 18.4207 12.7488C18.3519 12.68 18.2582 12.6458 18.1575 12.6458L3.35909 12.646C3.25842 12.646 3.16477 12.6801 3.09596 12.7489C3.02715 12.8176 2.993 12.9113 2.993 13.0121C2.993 13.1128 3.02709 13.2064 3.09585 13.2752C3.16463 13.344 3.2583 13.3782 3.35909 13.3782H5.57194V15.7508C5.53611 15.7382 5.49725 15.7312 5.45586 15.7312L2.41911 15.731C1.54818 15.731 0.857036 15.0399 0.857036 14.1689V7.08308C0.857036 6.21216 1.54818 5.52102 2.4191 5.52102H19.5794C20.4503 5.52102 21.1415 6.21216 21.1415 7.08308V14.1689C21.1415 15.0077 20.4642 15.7155 19.6077 15.7308H19.5794H16.7595C16.6588 15.7308 16.5652 15.7648 16.4964 15.8336C16.4667 15.8633 16.4435 15.8976 16.4266 15.9351ZM6.32608 4.76462C6.32754 4.74986 6.32823 4.73519 6.32823 4.72083V4.59631L6.3281 4.59631V1.1779C6.3281 1.13399 6.34219 1.1071 6.35777 1.09151C6.37335 1.07592 6.40023 1.06182 6.44419 1.06182L15.5787 1.06198C15.6226 1.06198 15.6495 1.07607 15.6651 1.09166C15.6807 1.10723 15.6948 1.13411 15.6948 1.17807V4.76462H6.32608ZM15.6705 13.3778V20.8207C15.6705 20.8646 15.6564 20.8915 15.6409 20.9071C15.6253 20.9227 15.5984 20.9368 15.5544 20.9368H6.44405C6.40014 20.9368 6.37325 20.9227 6.35766 20.9071C6.34207 20.8915 6.32797 20.8646 6.32797 20.8207V13.3778H15.6705Z" fill="white" stroke="white" stroke-width="0.25"/>
</svg>
