<svg xmlns="http://www.w3.org/2000/svg" width="20" height="20" viewBox="0 0 20 20"><defs><style>.a{fill:#c8102e;}</style></defs><g transform="translate(0 -18.065)"><g transform="translate(6.533 34.481)"><path class="a" d="M171.26,399.834h-5.633a.65.65,0,1,0,0,1.3h5.633a.65.65,0,0,0,0-1.3Z" transform="translate(-164.977 -399.834)"/></g><g transform="translate(6.533 31.948)"><path class="a" d="M171.26,346.006h-5.633a.65.65,0,1,0,0,1.3h5.633a.65.65,0,0,0,0-1.3Z" transform="translate(-164.977 -346.006)"/></g><g transform="translate(0 18.065)"><g transform="translate(0 0)"><path class="a" d="M18.444,22.934H16.323V18.782a.693.693,0,0,0-.667-.717H4.343a.693.693,0,0,0-.667.717v4.151H1.556A1.62,1.62,0,0,0,0,24.607v7.216A1.62,1.62,0,0,0,1.556,33.5H3.677v3.85a.693.693,0,0,0,.667.717H15.656a.693.693,0,0,0,.667-.717V33.5h2.121A1.62,1.62,0,0,0,20,31.824V24.607A1.62,1.62,0,0,0,18.444,22.934ZM5.01,19.5h9.98v3.434H5.01ZM14.99,36.63H5.01V30.762h9.98C14.99,30.94,14.99,36.5,14.99,36.63Zm.667-9.485h-1.7a.719.719,0,0,1,0-1.435h1.7a.719.719,0,0,1,0,1.435Z" transform="translate(0 -18.065)"/></g></g></g></svg>