<svg xmlns="http://www.w3.org/2000/svg" width="35" height="35" viewBox="0 0 35 35"><defs><style>.a{fill:#c8102e;}</style></defs><g transform="translate(8 -79.666)"><g transform="translate(-8 78.666)"><g transform="translate(0 1)"><path class="a" d="M33.171,220.618l-7.219-1.554-2.092-4.053a2.811,2.811,0,0,0-2.427-1.677H10.65a2.811,2.811,0,0,0-2.427,1.677L6.113,219.1l-4.455,1.438A2.783,2.783,0,0,0,0,223.28v4.732a4.806,4.806,0,0,0,.943,2.939,2.925,2.925,0,0,0,2.276,1.218H5.1a.543.543,0,0,0,.072-.019c.333,2.155,1.807,3.786,3.574,3.786s3.24-1.63,3.574-3.786a.543.543,0,0,0,.072.019h9.479a.543.543,0,0,0,.072-.019c.333,2.155,1.807,3.786,3.574,3.786s3.24-1.63,3.574-3.786a.543.543,0,0,0,.072.019h3.2a1.463,1.463,0,0,0,1.3-1.041l1.179-3.048a1.125,1.125,0,0,0,.058-.208l.077-.421a1.182,1.182,0,0,0,.019-.213V223.4A2.7,2.7,0,0,0,33.171,220.618ZM8.75,234.051c-1.206,0-2.188-1.267-2.188-2.825S7.544,228.4,8.75,228.4s2.188,1.267,2.188,2.825S9.956,234.051,8.75,234.051Zm14.1-11.3H9.479a.715.715,0,0,1-.625-.458,1.179,1.179,0,0,1-.017-.928L10.4,217.6a.727.727,0,0,1,.642-.5h10a.711.711,0,0,1,.62.445l1.812,3.767a1.179,1.179,0,0,1,.017.955A.722.722,0,0,1,22.855,222.751Zm2.666,11.3c-1.206,0-2.188-1.267-2.188-2.825s.981-2.825,2.188-2.825,2.188,1.267,2.188,2.825S26.727,234.051,25.521,234.051Z" transform="translate(0 -200.935)"/><path class="a" d="M107.085,50.041l2.825,1.883a.943.943,0,0,0,.522.158h8.192a6.592,6.592,0,1,0,0-5.65h-8.192a.943.943,0,0,0-.522.158l-2.825,1.883a.942.942,0,0,0,0,1.567Zm19.356-2.667a1.883,1.883,0,1,1-1.883,1.883A1.885,1.885,0,0,1,126.442,47.375Z" transform="translate(-101.886 -42.666)"/></g></g></g></svg>