<?xml version="1.0" encoding="utf-8"?>
<!-- Generator: Adobe Illustrator 25.0.1, SVG Export Plug-In . SVG Version: 6.00 Build 0)  -->
<svg version="1.1" id="Layer_1" xmlns="http://www.w3.org/2000/svg" xmlns:xlink="http://www.w3.org/1999/xlink" x="0px" y="0px"
	 viewBox="0 0 12.1 12.1" style="enable-background:new 0 0 12.1 12.1;" xml:space="preserve">
<style type="text/css">
	.st0{fill:#C8102E;}
</style>
<g>
	<path class="st0" d="M3.4,6.7C3.4,6.7,3.3,6.6,3.4,6.7C3.3,6.6,3.3,6.5,3.3,6.5c-0.1-0.1-0.1-0.3,0-0.4c0-0.1,0.1-0.2,0.2-0.3l0,0
		C3.6,5.5,4,5.5,4.3,5.6c0,0,0.1,0.1,0.1,0.1l0,0c0.2,0.2,0.5,0.5,0.7,0.7l0.2,0.2l2.2-2.3c0,0,0.1-0.1,0.1-0.1c0,0,0.1,0,0.1-0.1
		c0,0,0.1,0,0.1,0c0,0,0.1,0,0.1,0h0c0,0,0.1,0,0.1,0c0,0,0.1,0,0.1,0c0,0,0.1,0,0.1,0.1c0,0,0.1,0,0.1,0.1l0,0c0,0,0.1,0.1,0.1,0.1
		c0,0,0,0.1,0.1,0.1c0,0,0,0.1,0,0.1c0,0,0,0.1,0,0.1v0c0,0,0,0.1,0,0.1c0,0,0,0.1,0,0.1c0,0,0,0.1-0.1,0.1c0,0-0.1,0.1-0.1,0.1
		L5.8,8c0,0-0.1,0.1-0.1,0.1c0,0-0.1,0-0.1,0.1c0,0-0.1,0-0.1,0c0,0-0.1,0-0.1,0l0,0c0,0-0.1,0-0.1,0l0,0c0,0-0.1,0-0.1,0
		c0,0-0.1,0-0.1-0.1l0,0c0,0-0.1,0-0.1-0.1l0,0C4.7,7.9,4.5,7.7,4.3,7.6C4,7.3,3.6,7,3.4,6.7L3.4,6.7L3.4,6.7z M6.1,0
		c1.7,0,3.2,0.7,4.3,1.8c1.1,1.1,1.8,2.6,1.8,4.3c0,1.7-0.7,3.2-1.8,4.3c-1.1,1.1-2.6,1.8-4.3,1.8c-1.7,0-3.2-0.7-4.3-1.8
		C0.7,9.2,0,7.7,0,6.1c0-1.7,0.7-3.2,1.8-4.3C2.9,0.7,4.4,0,6.1,0L6.1,0z M9.6,2.6C8.7,1.7,7.4,1.1,6.1,1.1c-1.4,0-2.6,0.6-3.5,1.4
		C1.7,3.5,1.1,4.7,1.1,6.1c0,1.4,0.6,2.6,1.4,3.5S4.7,11,6.1,11c1.4,0,2.6-0.6,3.5-1.4S11,7.4,11,6.1C11,4.7,10.4,3.5,9.6,2.6
		L9.6,2.6z"/>
</g>
</svg>
