<?xml version="1.0" encoding="utf-8"?>
<!-- Generator: Adobe Illustrator 25.0.1, SVG Export Plug-In . SVG Version: 6.00 Build 0)  -->
<svg version="1.1" id="Layer_1" xmlns="http://www.w3.org/2000/svg" xmlns:xlink="http://www.w3.org/1999/xlink" x="0px" y="0px"
	 viewBox="0 0 41.7 41.7" style="enable-background:new 0 0 41.7 41.7;" xml:space="preserve">
<style type="text/css">
	.st0{fill:#C8102E;enable-background:new    ;}
</style>
<path class="st0" d="M29.7,12c-2.3-2.3-5.5-3.7-8.8-3.7v12.5L12,29.7c4.9,4.9,12.8,4.9,17.7,0S34.5,16.9,29.7,12z M20.8,0
	C9.3,0,0,9.3,0,20.8s9.3,20.8,20.8,20.8s20.8-9.3,20.8-20.8C41.7,9.3,32.3,0,20.8,0L20.8,0z M20.8,37.5c-9.2,0-16.7-7.5-16.7-16.7
	S11.6,4.2,20.8,4.2s16.7,7.5,16.7,16.7l0,0C37.5,30,30,37.5,20.8,37.5L20.8,37.5L20.8,37.5z"/>
</svg>
