<svg xmlns="http://www.w3.org/2000/svg" width="33.744" height="42" viewBox="0 0 33.744 42">
  <path id="shopping_bag_FILL0_wght500_GRAD0_opsz40" d="M10.3,44.958A3.774,3.774,0,0,1,7.535,43.8a3.774,3.774,0,0,1-1.16-2.761V15.29a3.77,3.77,0,0,1,1.16-2.76A3.772,3.772,0,0,1,10.3,11.369h4.8v-.31a8,8,0,0,1,2.4-5.753,7.823,7.823,0,0,1,5.753-2.348,7.848,7.848,0,0,1,5.727,2.348A7.957,7.957,0,0,1,31.4,11.059v.31h4.8a3.964,3.964,0,0,1,3.922,3.922V41.036A3.962,3.962,0,0,1,36.2,44.958Zm0-3.922H36.2V15.29H31.4v4.23a1.96,1.96,0,1,1-3.921,0V15.29H19.016v4.23a1.96,1.96,0,1,1-3.921,0V15.29H10.3Zm8.719-29.668h8.463v-.31a4.223,4.223,0,0,0-1.264-2.967,4.237,4.237,0,0,0-5.934,0,4.223,4.223,0,0,0-1.264,2.967ZM10.3,41.036v0Z" transform="translate(-6.375 -2.958)" fill="#c8102e"/>
</svg>
