<svg width="17" height="16" viewBox="0 0 17 16" fill="none" xmlns="http://www.w3.org/2000/svg">
<path d="M8.34783 5.1515C8.2391 5.2641 8.09014 5.32874 7.93364 5.33137C7.77713 5.33418 7.62607 5.27446 7.51365 5.16573L4.95261 2.6904V12.7335C4.95261 13.0595 4.68842 13.3237 4.36241 13.3237C4.03639 13.3237 3.77221 13.0595 3.77221 12.7335V2.6904L1.21116 5.16573C0.975784 5.38495 0.607966 5.37529 0.384521 5.14395C0.160911 4.91244 0.163902 4.54462 0.391197 4.31695L3.94504 0.882005L3.94521 0.881829L3.95241 0.874979L3.95786 0.871466V0.87129C4.0081 0.823161 4.06659 0.784341 4.13035 0.756587L4.1314 0.75606C4.13597 0.754128 4.14089 0.753249 4.14528 0.751493C4.15037 0.749385 4.15564 0.748507 4.16109 0.74675V0.746575C4.22046 0.724793 4.28282 0.712498 4.34605 0.710565L4.35519 0.709687L4.36239 0.708984L4.36942 0.709687C4.37328 0.709687 4.37679 0.710741 4.38066 0.710741C4.44354 0.712849 4.50572 0.724969 4.56492 0.746926C4.56984 0.748682 4.57458 0.749561 4.57933 0.751493C4.58407 0.753425 4.58864 0.754128 4.59303 0.75606L4.59566 0.757465V0.757289C4.65907 0.785043 4.71704 0.823689 4.76693 0.871467L4.77237 0.87498L4.77957 0.88183L4.77975 0.882006L8.33359 4.31695C8.56791 4.54355 8.57424 4.91718 8.34782 5.1515L8.34783 5.1515ZM16.6106 10.8485C16.5019 10.736 16.353 10.6712 16.1964 10.6686C16.0401 10.6659 15.8889 10.7255 15.7765 10.8342L13.2154 13.3096V3.26649C13.2154 2.94047 12.9512 2.67629 12.6252 2.67629C12.2992 2.67629 12.035 2.94047 12.035 3.26649V13.3096L9.47397 10.8342V10.8341C9.23859 10.6148 8.87077 10.6245 8.64733 10.856C8.42372 11.0873 8.42671 11.4552 8.654 11.683L12.2078 15.118V15.1181L12.215 15.125C12.2168 15.1266 12.2189 15.1271 12.2207 15.1287C12.24 15.1469 12.2605 15.1638 12.282 15.1793C12.2864 15.1824 12.2902 15.1868 12.2948 15.1898L12.295 15.19C12.3269 15.2116 12.361 15.23 12.3967 15.2451L12.4049 15.2479C12.4083 15.2493 12.412 15.2499 12.4153 15.2511C12.4267 15.2555 12.4387 15.2581 12.4504 15.2618C12.4694 15.2685 12.4885 15.2745 12.508 15.2792C12.5851 15.2948 12.6647 15.2948 12.7417 15.2792C12.764 15.2739 12.7857 15.2673 12.8072 15.2594C12.8161 15.2564 12.8254 15.2544 12.8342 15.2511C12.8377 15.2497 12.8414 15.2492 12.8449 15.2478L12.8528 15.2451H12.853C12.8889 15.2302 12.9231 15.2116 12.9552 15.1898C12.9581 15.1879 12.9603 15.1852 12.9632 15.1833C12.9863 15.1668 13.0085 15.1485 13.029 15.1288L13.0346 15.1252L13.0418 15.1183V15.1181L16.5957 11.6832V11.683C16.7085 11.5743 16.7733 11.4253 16.7761 11.2688C16.7787 11.1123 16.7193 10.9611 16.6106 10.8485L16.6106 10.8485Z" fill="#231F20"/>
</svg>
