<svg xmlns="http://www.w3.org/2000/svg" width="24" height="24" viewBox="0 0 24 24">
  <path id="star_FILL1_wght500_GRAD0_opsz40" d="M16.967,26.805,10.98,30.6a1.213,1.213,0,0,1-.715.191,1.136,1.136,0,0,1-.682-.261,1.176,1.176,0,0,1-.433-.556,1.584,1.584,0,0,1-.066-.8l1.6-7.135-5.288-4.8a1.094,1.094,0,0,1-.4-.662,1.619,1.619,0,0,1,.034-.731,1.116,1.116,0,0,1,.382-.609,1.5,1.5,0,0,1,.715-.3l6.951-.627L15.8,7.557a1.181,1.181,0,0,1,.5-.574,1.251,1.251,0,0,1,1.33,0,1.181,1.181,0,0,1,.5.574l2.728,6.753,6.985.627a1.472,1.472,0,0,1,.682.3,1.116,1.116,0,0,1,.382.609,1.619,1.619,0,0,1,.034.731,1.094,1.094,0,0,1-.4.662l-5.288,4.8,1.6,7.135a1.584,1.584,0,0,1-.066.8,1.176,1.176,0,0,1-.433.556,1.136,1.136,0,0,1-.682.261,1.213,1.213,0,0,1-.715-.191Z" transform="translate(-4.967 -6.792)" fill="#ffc527"/>
</svg>
