<svg xmlns="http://www.w3.org/2000/svg" width="34" height="15.334" viewBox="0 0 34 15.334"><path d="M711.413,125.144h8.762a.73.73,0,1,0,0-1.46h-8.762a.73.73,0,1,0,0,1.46Zm12.192-8.762-1.279-.853a12.31,12.31,0,0,0-6.83-2.068h-1.056l.507,2.921Zm2.36,1.46h-18.79a2.922,2.922,0,0,1-2.337-1.168l-1.328-1.771a8.4,8.4,0,0,0-.75.572l-2.046,1.754a.731.731,0,0,0-.255.554v.789h1.406a.73.73,0,0,1,0,1.46H700.46v2.921a.73.73,0,0,0,.73.73h.73a.73.73,0,1,1,0,1.46h-.73A2.191,2.191,0,0,1,699,122.953v-5.17a2.191,2.191,0,0,1,.765-1.663l2.045-1.753a9.827,9.827,0,0,1,6.4-2.367H715.5a13.772,13.772,0,0,1,7.64,2.313l3.059,2.039a.74.74,0,0,0,.247.105q4.87,1.082,4.9,1.089a2.19,2.19,0,0,1,1.594,2.656l-.82,3.281a2.191,2.191,0,0,1-2.126,1.659h-.32a.73.73,0,1,1,0-1.46h.32a.731.731,0,0,0,.709-.553l.774-3.1h-1.294a.73.73,0,0,1-.4-1.338l-3.647-.811Q726.044,117.866,725.966,117.842ZM704.8,114.186l1.208,1.612a1.46,1.46,0,0,0,1.168.584h6.29l-.507-2.921h-4.751A8.369,8.369,0,0,0,704.8,114.186Zm20.123,13.149a3.286,3.286,0,1,1,3.286-3.286A3.286,3.286,0,0,1,724.922,127.334Zm0-1.46a1.826,1.826,0,1,0-1.826-1.826A1.825,1.825,0,0,0,724.922,125.874Zm-18.255,1.46a3.286,3.286,0,1,1,3.286-3.286A3.286,3.286,0,0,1,706.667,127.334Zm0-1.46a1.826,1.826,0,1,0-1.825-1.826A1.825,1.825,0,0,0,706.667,125.874Z" transform="translate(-699 -112)"/></svg>