<svg xmlns="http://www.w3.org/2000/svg" width="46" height="46" viewBox="0 0 46 46"><defs><style>.a,.b{fill:none;}.a{stroke:#c8102e;stroke-width:2px;}.c{fill:#c8102e;}.d{stroke:none;}</style></defs><g transform="translate(-1714 -20)"><g class="a" transform="translate(1714 20)"><rect class="d" width="46" height="46" rx="23"/><rect class="b" x="1" y="1" width="44" height="44" rx="22"/></g><g transform="translate(1725 31)"><path class="b" d="M0,0H24V24H0Z"/><path class="c" d="M4,18H20a1,1,0,0,0,0-2H4a1,1,0,0,0,0,2Zm0-5H20a1,1,0,0,0,0-2H4a1,1,0,0,0,0,2ZM3,7A1,1,0,0,0,4,8H20a1,1,0,0,0,0-2H4A1,1,0,0,0,3,7Z"/></g></g></svg>