<svg xmlns="http://www.w3.org/2000/svg" width="20.881" height="22.273" viewBox="0 0 20.881 22.273"><defs><style>.a{fill:#c8102e;}</style></defs><g transform="translate(4.872)"><path class="a" d="M138.962,5.806,134.09.238a.694.694,0,0,0-1.047,0l-4.872,5.568a.7.7,0,0,0,.523,1.154h2.784v9.048a.7.7,0,0,0,.7.7h2.784a.7.7,0,0,0,.7-.7V6.96h2.784a.7.7,0,0,0,.523-1.154Z" transform="translate(-127.998)"/></g><g transform="translate(0 15.312)"><path class="a" d="M34.1,352v4.176H18.784V352H16v5.568a1.392,1.392,0,0,0,1.392,1.392h18.1a1.391,1.391,0,0,0,1.392-1.392V352Z" transform="translate(-16 -352)"/></g></svg>