<svg xmlns="http://www.w3.org/2000/svg" width="19.202" height="21.847" viewBox="0 0 19.202 21.847"><defs><style>.a{opacity:0.5;}.b{fill:#827f7f;}</style></defs><g class="a" transform="translate(0)"><g transform="translate(3.84)"><path class="b" d="M126.76,0a5.76,5.76,0,1,0,5.76,5.76A5.767,5.767,0,0,0,126.76,0Z" transform="translate(-121)"/></g><g transform="translate(0 12.801)"><path class="b" d="M47.768,302.483A8.212,8.212,0,0,0,41.881,300h-2.56a8.212,8.212,0,0,0-5.887,2.483A8.4,8.4,0,0,0,31,308.406a.64.64,0,0,0,.64.64H49.561a.64.64,0,0,0,.64-.64A8.4,8.4,0,0,0,47.768,302.483Z" transform="translate(-31 -300)"/></g></g></svg>