<svg xmlns="http://www.w3.org/2000/svg" width="20" height="22" viewBox="0 0 20 22"><defs><style>.a{opacity:0.5;}.b{fill:#63666a;}</style></defs><g class="a"><g transform="translate(4.186)"><path class="b" d="M126.814,0a5.814,5.814,0,1,0,5.814,5.814A5.821,5.821,0,0,0,126.814,0Z" transform="translate(-121)"/></g><g transform="translate(0 12.869)"><path class="b" d="M48.465,302.506A8.69,8.69,0,0,0,42.333,300H39.667a8.69,8.69,0,0,0-6.132,2.506A8.341,8.341,0,0,0,31,308.485a.657.657,0,0,0,.667.646H50.333a.657.657,0,0,0,.667-.646A8.341,8.341,0,0,0,48.465,302.506Z" transform="translate(-31 -300)"/></g></g></svg>