<svg xmlns="http://www.w3.org/2000/svg" width="18.494" height="20" viewBox="0 0 18.494 20"><defs><style>.a{fill:#827f7f;}</style></defs><g transform="translate(3.699 0)"><path class="a" d="M126.548,0A5.548,5.548,0,1,0,132.1,5.548,5.548,5.548,0,0,0,126.548,0Zm0,9.863a4.319,4.319,0,1,1,4.319-4.319,4.319,4.319,0,0,1-4.319,4.319Z" transform="translate(-121 0)"/></g><g transform="translate(0 11.331)"><path class="a" d="M41.963,301H38.53A8.91,8.91,0,0,0,31,305.128v4.54H49.494v-4.54A8.912,8.912,0,0,0,41.963,301Zm6.295,7.439H32.233v-2.932a7.673,7.673,0,0,1,6.295-3.272H41.96a7.673,7.673,0,0,1,6.295,3.272Z" transform="translate(-31 -301)"/></g></svg>