<svg xmlns="http://www.w3.org/2000/svg" width="42" height="40.13" viewBox="0 0 42 40.13">
  <path id="verified_FILL0_wght500_GRAD0_opsz40" d="M15.885,42.255l-3.648-6.221-7.11-1.5.8-7.016L1.292,22.19l4.63-5.285-.8-7.063,7.11-1.5,3.648-6.221,6.407,2.9,6.454-2.9,3.648,6.221,7.063,1.5-.8,7.063,4.63,5.285-4.63,5.332.8,7.016-7.063,1.5-3.648,6.221-6.454-2.9Zm1.543-4.63,4.864-2.058,5,2.058,2.947-4.537,5.286-1.356-.515-5.425,3.648-4.116-3.648-4.209.515-5.425-5.286-1.263L27.2,6.755,22.292,8.813l-5-2.058-2.947,4.537L9.055,12.555l.515,5.425L5.922,22.19l3.648,4.116-.515,5.518,5.286,1.263ZM22.292,22.19ZM20.28,28.644,30.991,18.028l-2.385-2.292L20.28,24.014l-4.255-4.443-2.432,2.385Z" transform="translate(-1.292 -2.125)" fill="#c8102e"/>
</svg>
